<svg width="485" height="394" xmlns="http://www.w3.org/2000/svg" xmlns:xlink="http://www.w3.org/1999/xlink" xml:space="preserve" overflow="hidden"><defs><clipPath id="clip0"><rect x="1010" y="750" width="485" height="394"/></clipPath></defs><g clip-path="url(#clip0)" transform="translate(-1010 -750)"><path d="M1125.89 1075.01C1123.87 1075.68 1121.39 1076.13 1119.14 1076.13 1118.69 1077.71 1102.94 1118.83 1101.59 1122.65 1105.64 1122.65 1212.09 1122.65 1212.09 1122.65 1212.09 1122.65 1209.39 1131.64 1208.49 1134.34 1212.09 1134.34 1280.51 1134.34 1294.69 1134.34 1294.01 1131.64 1291.09 1122.65 1291.09 1122.65 1291.09 1122.65 1397.54 1122.65 1401.81 1122.65 1400.24 1118.83 1384.48 1077.71 1384.03 1076.13 1381.78 1076.13 1379.53 1075.68 1377.28 1075.01 1377.28 1075.01 1377.28 1075.01 1391.91 1117.03 1391.91 1117.03 1285.68 1117.03 1281.41 1117.03 1282.53 1120.18 1285.68 1129.84 1285.68 1129.84 1285.68 1129.84 1285.68 1129.84 1268.58 1129.84 1268.58 1129.84 1268.58 1129.84 1234.6 1129.84 1234.6 1129.84 1234.6 1129.84 1217.49 1129.84 1217.49 1129.84 1220.87 1120.18 1221.77 1117.03 1217.72 1117.03 1111.49 1117.03 1111.49 1117.03 1111.49 1117.03 1111.49 1117.03 1112.16 1115.23 1112.16 1115.23 1112.16 1115.23 1125.89 1075.01ZM1298.27 1071.45 1316.52 1071.45 1327.73 1071.45 1345.98 1071.45 1345.98 1078.19 1327.73 1078.19 1327.73 1099.98 1316.52 1099.98 1316.52 1078.19 1298.27 1078.19ZM1249.41 1071.45 1260.48 1071.45 1260.48 1099.98 1249.41 1099.98ZM1158.73 1071.45 1169.8 1071.45 1169.8 1082.06 1194.8 1082.06 1194.8 1071.45 1205.72 1071.45 1205.72 1099.98 1194.8 1099.98 1194.8 1088.94 1169.8 1088.94 1169.8 1099.98 1158.73 1099.98ZM1139.85 1067.82C1137.15 1069.84 1133.54 1072.09 1129.49 1073.66 1128.37 1077.26 1116.89 1110.74 1115.77 1114.11 1119.82 1114.11 1226.04 1114.11 1226.04 1114.11 1226.04 1114.11 1222.67 1124 1221.77 1126.7 1222.89 1126.7 1228.07 1126.7 1234.6 1126.7 1248.55 1126.7 1268.58 1126.7 1268.58 1126.7 1275.11 1126.7 1280.28 1126.7 1281.41 1126.7 1280.51 1124 1277.13 1114.11 1277.13 1114.11 1277.13 1114.11 1383.36 1114.11 1387.41 1114.11 1386.28 1110.74 1374.81 1077.26 1373.68 1073.66 1369.63 1072.09 1366.03 1069.84 1363.33 1067.82 1363.33 1067.82 1363.33 1067.82 1377.06 1108.04 1377.06 1108.04 1270.83 1108.04 1266.78 1108.04 1267.9 1110.74 1271.06 1120.4 1271.06 1120.4 1271.06 1120.4 1271.06 1120.4 1258.23 1120.4 1258.23 1120.4 1258.23 1120.4 1244.95 1120.4 1244.95 1120.4 1244.95 1120.4 1232.12 1120.4 1232.12 1120.4 1235.27 1110.74 1236.4 1108.04 1232.35 1108.04 1126.12 1108.04 1126.12 1108.04 1126.12 1108.04 1126.12 1108.04 1126.79 1106.02 1126.79 1106.02 1126.79 1106.02 1139.85 1067.82ZM1146.15 1062.87C1145.7 1063.32 1145.02 1063.77 1144.12 1064.45 1143.22 1067.82 1131.52 1101.3 1130.39 1104.9 1134.45 1104.9 1240.67 1104.9 1240.67 1104.9 1240.67 1104.9 1237.3 1114.56 1236.4 1117.48 1237.75 1117.48 1241.12 1117.48 1244.95 1117.48 1251.25 1117.48 1258.23 1117.48 1258.23 1117.48 1262.05 1117.48 1265.43 1117.48 1266.78 1117.48 1265.88 1114.56 1262.5 1104.9 1262.5 1104.9 1262.5 1104.9 1368.73 1104.9 1372.78 1104.9 1371.66 1101.3 1360.18 1067.82 1359.05 1064.45 1358.15 1063.77 1357.48 1063.32 1357.03 1062.87 1356.58 1062.87 1318.09 1062.87 1282.08 1062.87 1282.08 1062.87 1252.6 1062.87 1221.09 1062.87 1185.08 1062.87 1146.6 1062.87 1146.15 1062.87ZM1241.18 1032.17C1240.28 1032.17 1239.61 1032.62 1239.16 1032.85 1238.26 1033.75 1237.81 1034.87 1237.81 1036.22 1237.81 1037.79 1238.03 1038.69 1238.71 1039.36 1239.16 1040.03 1240.06 1040.48 1241.18 1040.48 1241.85 1040.48 1242.53 1040.26 1242.98 1039.81 1243.87 1039.36 1244.55 1038.24 1244.55 1036.66 1244.55 1035.32 1244.1 1034.19 1243.65 1033.52 1242.98 1032.62 1242.08 1032.17 1241.18 1032.17ZM1283.47 1032.16C1282.11 1032.16 1281.21 1032.84 1280.76 1034.18 1280.31 1035.52 1280.31 1037.54 1280.31 1040.23 1280.31 1042.91 1280.31 1044.93 1280.76 1046.5 1281.21 1047.84 1282.11 1048.51 1283.47 1048.51 1284.82 1048.51 1285.73 1047.84 1286.18 1046.5 1286.63 1044.93 1286.86 1042.91 1286.86 1040.23 1286.86 1037.54 1286.63 1035.52 1286.18 1034.18 1285.73 1032.84 1284.82 1032.16 1283.47 1032.16ZM1219.55 1028.72C1219.55 1028.72 1219.55 1028.72 1223.4 1028.72 1223.4 1028.72 1223.4 1028.72 1223.4 1051.66L1218.64 1051.66C1218.64 1051.66 1218.64 1051.66 1218.64 1035.7 1218.64 1035.7 1218.64 1035.7 1213.2 1035.7 1213.2 1035.7 1213.2 1035.7 1213.2 1032.55 1214.78 1032.55 1215.69 1032.55 1216.37 1032.32 1217.28 1032.1 1217.96 1031.65 1218.41 1031.2 1218.87 1030.75 1219.32 1030.3 1219.32 1029.4 1219.55 1029.17 1219.55 1028.72 1219.55 1028.72ZM1283.47 1028.58C1286.4 1028.58 1288.44 1029.48 1289.79 1031.72 1290.92 1033.73 1291.37 1036.64 1291.37 1040.45 1291.37 1044.26 1290.92 1046.94 1289.79 1049.18 1288.44 1051.2 1286.4 1052.09 1283.47 1052.09 1280.53 1052.09 1278.5 1051.2 1277.37 1049.18 1276.24 1046.94 1275.56 1044.26 1275.56 1040.45 1275.56 1036.64 1276.24 1033.73 1277.37 1031.72 1278.5 1029.48 1280.53 1028.58 1283.47 1028.58ZM1262.05 1028.58C1264.51 1028.58 1266.52 1029.25 1267.87 1030.6 1269.21 1032.17 1269.88 1033.74 1269.88 1035.98 1269.88 1037.77 1269.43 1039.11 1268.54 1040.46 1267.87 1041.36 1266.75 1042.25 1265.18 1043.37 1265.18 1043.37 1265.18 1043.37 1263.39 1044.72 1262.27 1045.39 1261.6 1046.06 1261.15 1046.29 1260.71 1046.73 1260.26 1047.18 1260.03 1047.63 1260.03 1047.63 1260.03 1047.63 1270.1 1047.63 1270.1 1047.63 1270.1 1047.63 1270.1 1051.66 1270.1 1051.66 1270.1 1051.66 1254.44 1051.66 1254.44 1049.87 1254.89 1048.3 1255.56 1047.18 1256.23 1045.61 1257.57 1044.05 1260.03 1042.25 1262.05 1040.68 1263.39 1039.79 1264.06 1039.11 1264.96 1038.22 1265.4 1036.87 1265.4 1035.75 1265.4 1034.86 1265.18 1033.96 1264.51 1033.29 1264.06 1032.62 1263.39 1032.39 1262.27 1032.39 1260.93 1032.39 1260.03 1032.84 1259.59 1033.96 1259.14 1034.63 1259.14 1035.53 1259.14 1036.65 1259.14 1036.65 1259.14 1036.65 1254.66 1036.65 1254.89 1034.86 1255.11 1033.29 1255.78 1032.17 1256.9 1029.93 1259.14 1028.58 1262.05 1028.58ZM1240.95 1028.58C1244.32 1028.58 1246.8 1030.15 1248.14 1033.07 1248.82 1034.87 1249.27 1037.11 1249.27 1040.03 1249.27 1042.73 1248.82 1045.2 1248.14 1046.99 1246.8 1050.36 1244.32 1052.38 1240.73 1052.38 1238.93 1052.38 1237.36 1051.71 1236.01 1050.81 1234.66 1049.69 1233.99 1048.34 1233.76 1046.32 1233.76 1046.32 1233.76 1046.32 1238.26 1046.32 1238.26 1046.99 1238.48 1047.44 1239.16 1047.89 1239.61 1048.34 1240.28 1048.56 1240.95 1048.56 1242.3 1048.56 1243.43 1047.89 1244.1 1046.09 1244.32 1045.2 1244.55 1043.85 1244.55 1042.05 1244.32 1042.73 1243.87 1042.95 1243.2 1043.4 1242.53 1043.85 1241.4 1044.07 1240.28 1044.07 1238.48 1044.07 1236.69 1043.4 1235.34 1042.05 1233.99 1040.93 1233.32 1039.13 1233.32 1036.66 1233.32 1034.19 1233.99 1032.4 1235.34 1030.83 1236.91 1029.25 1238.71 1028.58 1240.95 1028.58ZM1300.1 1018.2C1300.1 1018.2 1300.1 1018.2 1300.1 1019.55 1300.1 1019.55 1300.1 1019.55 1303.93 1019.55 1303.93 1019.55 1304.38 1019.55 1304.38 1019.55 1304.38 1019.33 1303.93 1018.88 1303.7 1018.2ZM1200.17 1018.2C1199.72 1018.88 1199.5 1019.33 1199.27 1019.55 1199.5 1019.55 1199.72 1019.55 1199.72 1019.55 1199.72 1019.55 1201.75 1019.55 1202.87 1019.55L1202.87 1018.2C1202.87 1018.2 1202.87 1018.2 1200.17 1018.2ZM1204.22 1017.98C1204.22 1018.65 1204.22 1019.1 1204.22 1019.55 1205.8 1019.55 1296.95 1019.55 1298.52 1019.55 1298.52 1019.1 1298.52 1018.65 1298.52 1017.98 1298.52 1017.98 1298.52 1017.98 1204.22 1017.98ZM1073.23 1017.25C1073.23 1017.25 1073.23 1017.25 1085.61 1017.25 1086.73 1019.95 1087.86 1022.42 1089.21 1025.12 1093.93 1034.56 1099.79 1043.55 1105.86 1051.86 1110.36 1048.49 1120.27 1040.63 1120.27 1040.63 1120.27 1040.63 1120.27 1040.63 1123.87 1045.12 1129.04 1051.64 1134.67 1057.71 1140.75 1063.32 1143 1061.53 1144.35 1060.4 1144.35 1060.18 1144.35 1060.18 1144.35 1060.18 1144.8 1059.95 1144.8 1059.95 1144.8 1059.95 1145.47 1059.95 1145.47 1059.95 1145.47 1059.95 1170.23 1059.95 1154.25 1048.72 1140.52 1034.11 1130.39 1017.25 1130.39 1017.25 1130.39 1017.25 1144.12 1017.25 1156.28 1035.23 1172.7 1049.84 1192.06 1059.95 1192.06 1059.95 1192.06 1059.95 1221.09 1059.95 1221.09 1059.95 1221.09 1059.95 1282.08 1059.95 1282.08 1059.95 1282.08 1059.95 1312.02 1059.95 1331.37 1049.84 1348.02 1035.23 1360.18 1017.25 1360.18 1017.25 1360.18 1017.25 1373.68 1017.25 1363.55 1034.11 1350.05 1048.72 1334.07 1059.95 1334.07 1059.95 1334.07 1059.95 1357.7 1059.95 1357.7 1059.95 1357.7 1059.95 1358.38 1059.95 1358.38 1059.95 1358.38 1059.95 1358.83 1060.18 1358.83 1060.4 1360.4 1061.75 1363.1 1063.77 1369.18 1058.15 1374.81 1051.86 1380.21 1045.12 1380.21 1045.12 1380.21 1045.12 1383.81 1040.63 1383.81 1040.63 1393.71 1048.49 1397.76 1051.86 1404.06 1043.55 1409.69 1034.56 1414.64 1025.12 1415.77 1022.42 1417.12 1019.95 1418.24 1017.25 1418.24 1017.25 1418.24 1017.25 1430.62 1017.25 1428.82 1021.75 1426.79 1026.02 1424.77 1030.29 1418.92 1041.97 1411.72 1053.44 1403.39 1063.77 1403.39 1063.77 1403.39 1063.77 1400.01 1068.27 1400.01 1068.27 1389.66 1059.95 1385.38 1056.58 1381.33 1061.3 1377.06 1065.8 1372.78 1069.84 1376.61 1071.86 1380.88 1073.21 1385.16 1073.21 1385.16 1073.21 1385.16 1073.21 1386.06 1073.44 1386.06 1073.44 1386.06 1073.44 1386.28 1073.44 1386.28 1073.44 1386.28 1073.44 1391.91 1073.21 1391.91 1073.21 1391.91 1073.21 1413.97 1132.31 1413.97 1132.31 1413.97 1132.31 1304.36 1132.31 1304.36 1132.31 1304.36 1132.31 1307.51 1144 1307.51 1144 1307.51 1144 1267.23 1144 1267.23 1144 1267.23 1144 1235.95 1144 1235.95 1144 1235.95 1144 1195.66 1144 1195.66 1144 1195.66 1144 1199.04 1132.31 1199.04 1132.31 1199.04 1132.31 1089.21 1132.31 1089.21 1132.31 1089.21 1132.31 1111.49 1073.21 1111.49 1073.21 1111.49 1073.21 1116.89 1073.44 1116.89 1073.44 1116.89 1073.44 1117.12 1073.44 1117.12 1073.44 1117.12 1073.44 1118.02 1073.21 1122.52 1073.21 1127.02 1071.64 1131.07 1069.62 1126.79 1065.35 1122.52 1061.08 1118.69 1056.36 1114.42 1059.95 1103.84 1068.27 1103.84 1068.27 1103.84 1068.27 1103.84 1068.27 1100.24 1063.77 1092.13 1053.44 1084.93 1041.97 1079.08 1030.29 1077.06 1026.02 1075.03 1021.75 1073.23 1017.25ZM1320.81 1014.83C1320.81 1014.83 1320.81 1014.83 1320.58 1017.75 1321.48 1017.75 1324.18 1017.75 1325.08 1017.75 1325.08 1017.08 1325.08 1015.73 1325.08 1014.83 1325.08 1014.83 1325.08 1014.83 1320.81 1014.83ZM1179.47 1014.83C1179.47 1015.73 1179.47 1017.08 1179.47 1017.75 1180.37 1017.75 1183.07 1017.75 1183.97 1017.75 1183.97 1017.75 1183.97 1017.75 1183.97 1014.83 1183.97 1014.83 1183.97 1014.83 1179.47 1014.83ZM1299.65 1014.61 1299.65 1016.41C1299.65 1016.41 1299.65 1016.41 1300.1 1016.41 1300.1 1016.41 1300.1 1016.41 1300.1 1016.63 1300.1 1016.63 1300.1 1016.63 1303.03 1016.63 1302.58 1015.96 1302.35 1015.28 1301.9 1014.61 1301.9 1014.61 1301.9 1014.61 1299.65 1014.61ZM1201.97 1014.61C1201.52 1015.28 1201.3 1015.96 1200.85 1016.63 1200.85 1016.63 1200.85 1016.63 1202.87 1016.63 1202.87 1016.63 1202.87 1016.63 1202.87 1016.41 1202.87 1016.41 1202.87 1016.41 1203.55 1016.41L1203.55 1014.61C1203.55 1014.61 1203.55 1014.61 1201.97 1014.61ZM1205.13 1014.38C1205.13 1015.06 1205.13 1015.73 1205.13 1016.41 1206.7 1016.41 1296.5 1016.41 1298.07 1016.41 1298.07 1015.73 1298.07 1015.06 1298.07 1014.38 1297.85 1014.38 1296.5 1014.38 1294.47 1014.38L1208.28 1014.38C1206.48 1014.38 1205.35 1014.38 1205.13 1014.38ZM1317.2 1011.69C1317.2 1012.59 1317.2 1013.26 1317.2 1013.49 1317.43 1013.93 1318.33 1014.83 1319.23 1016.18 1319.23 1015.28 1319.23 1014.61 1319.23 1014.16 1319.23 1014.16 1319.23 1014.16 1317.2 1011.69ZM1187.57 1011.69C1187.57 1011.69 1187.57 1011.69 1185.32 1014.16 1185.32 1014.61 1185.32 1015.28 1185.32 1016.18 1186.45 1014.83 1187.35 1013.93 1187.57 1013.49 1187.57 1013.26 1187.57 1012.59 1187.57 1011.69ZM1375.72 1011.01C1376.17 1011.91 1376.39 1012.81 1376.62 1013.04 1377.52 1013.04 1490.5 1013.04 1491.4 1013.04 1491.62 1012.81 1492.07 1011.91 1492.52 1011.01 1490.05 1011.01 1377.97 1011.01 1375.72 1011.01ZM1209.85 1011.01C1209.85 1011.69 1209.85 1012.36 1209.85 1013.04 1211.2 1013.04 1291.55 1013.04 1292.9 1013.04 1292.9 1012.36 1292.9 1011.69 1292.9 1011.01 1292.9 1011.01 1292.67 1011.01 1292.22 1011.01 1292.22 1011.01 1292.22 1011.01 1292.22 1011.24 1292.22 1011.24 1292.22 1011.24 1210.53 1011.24 1210.53 1011.24 1210.53 1011.24 1210.53 1011.01 1210.08 1011.01 1209.85 1011.01 1209.85 1011.01ZM1012.03 1011.01C1012.48 1011.91 1012.93 1012.81 1013.15 1013.04 1014.05 1013.04 1127.03 1013.04 1128.16 1013.04 1128.38 1012.81 1128.61 1011.91 1128.83 1011.01 1126.81 1011.01 1014.5 1011.01 1012.03 1011.01ZM1318.1 1010.56C1319 1011.69 1320.13 1013.04 1320.35 1013.26 1321.03 1013.26 1361.54 1013.26 1362.44 1013.26 1362.67 1012.81 1363.57 1011.46 1364.24 1010.56 1364.24 1010.56 1364.24 1010.56 1318.1 1010.56ZM1309.1 1010.56C1309.1 1010.56 1309.1 1010.56 1309.1 1011.69 1311.58 1011.69 1314.28 1011.69 1315.63 1011.69L1315.63 1010.56C1315.63 1010.56 1315.63 1010.56 1309.1 1010.56ZM1303.25 1010.56C1303.25 1010.79 1303.25 1011.46 1303.25 1011.69 1303.7 1011.69 1305.5 1011.69 1307.53 1011.69L1307.53 1010.56C1307.53 1010.56 1307.53 1010.56 1303.25 1010.56ZM1294.47 1010.56C1294.47 1010.56 1294.47 1010.56 1294.47 1013.04 1294.47 1013.04 1294.47 1013.04 1298.97 1013.04L1299.65 1013.04C1299.65 1013.04 1299.65 1013.04 1301.68 1013.04 1301.68 1013.04 1301.68 1013.04 1301.68 1010.56 1301.68 1010.56 1301.68 1010.56 1294.47 1010.56ZM1202.87 1010.56C1202.87 1010.56 1202.87 1010.56 1202.87 1013.04 1202.87 1013.04 1202.87 1013.04 1203.55 1013.04 1203.55 1013.04 1203.55 1013.04 1208.28 1013.04 1208.28 1013.04 1208.28 1013.04 1208.28 1010.56 1208.28 1010.56 1208.28 1010.56 1202.87 1010.56ZM1197.02 1010.56C1197.02 1010.56 1197.02 1010.56 1197.02 1011.69 1199.05 1011.69 1200.85 1011.69 1201.52 1011.69 1201.52 1011.46 1201.52 1010.79 1201.52 1010.56 1201.52 1010.56 1201.52 1010.56 1197.02 1010.56ZM1188.92 1010.56C1188.92 1010.56 1188.92 1010.56 1188.92 1011.69 1190.27 1011.69 1192.97 1011.69 1195.45 1011.69L1195.45 1010.56C1195.45 1010.56 1195.45 1010.56 1188.92 1010.56ZM1140.31 1010.56C1140.76 1011.46 1141.21 1012.81 1141.43 1013.26 1142.33 1013.26 1183.52 1013.26 1184.19 1013.26 1184.65 1013.04 1185.55 1011.69 1186.45 1010.56 1186.45 1010.56 1186.45 1010.56 1140.31 1010.56ZM1212.1 1008.77C1212.1 1008.99 1212.1 1009.22 1212.1 1009.44 1212.1 1009.44 1212.1 1009.44 1290.65 1009.44 1290.65 1009.22 1290.65 1008.99 1290.65 1008.77 1289.3 1008.77 1213.45 1008.77 1212.1 1008.77ZM1375.27 1006.97C1375.27 1007.64 1375.27 1008.54 1375.27 1009.22 1376.84 1009.22 1491.62 1009.22 1492.97 1009.22 1492.97 1008.54 1492.97 1007.64 1492.97 1006.97 1492.97 1006.97 1492.3 1006.97 1491.17 1006.97 1491.17 1006.97 1491.17 1006.97 1450.89 1006.97 1440.54 1006.97 1429.51 1006.97 1419.16 1006.97 1419.16 1006.97 1419.16 1006.97 1383.82 1006.97 1383.82 1006.97 1383.82 1006.97 1382.25 1006.97 1382.25 1006.97 1382.25 1006.97 1376.84 1006.97 1376.84 1006.97 1376.84 1006.97 1375.27 1006.97ZM1011.58 1006.97C1011.58 1007.64 1011.58 1008.54 1011.58 1009.22 1013.15 1009.22 1127.71 1009.22 1129.28 1009.22 1129.28 1008.54 1129.28 1007.64 1129.28 1006.97 1129.28 1006.97 1129.28 1006.97 1127.93 1006.97 1127.93 1006.97 1127.93 1006.97 1122.3 1006.97 1122.3 1006.97 1122.3 1006.97 1120.73 1006.97 1120.73 1006.97 1120.73 1006.97 1085.62 1006.97 1075.27 1006.97 1064.01 1006.97 1053.66 1006.97 1053.66 1006.97 1053.66 1006.97 1013.38 1006.97 1012.25 1006.97 1011.58 1006.97 1011.58 1006.97ZM1292.67 1006.74C1292.67 1007.42 1292.67 1008.32 1292.67 1008.99L1364.47 1008.99C1364.47 1008.32 1364.47 1007.42 1364.47 1006.74 1364.47 1006.74 1364.47 1006.74 1356.36 1006.74 1356.36 1006.74 1356.36 1006.74 1355.46 1006.74 1348.49 1006.74 1294.02 1006.74 1292.67 1006.74ZM1140.08 1006.74C1140.08 1006.74 1140.08 1006.74 1139.86 1008.99L1210.08 1008.99C1210.08 1008.99 1210.08 1007.64 1210.08 1006.74 1208.5 1006.74 1156.06 1006.74 1149.09 1006.74 1149.09 1006.74 1149.09 1006.74 1148.19 1006.74 1148.19 1006.74 1148.19 1006.74 1141.66 1006.74 1141.66 1006.74 1141.66 1006.74 1140.08 1006.74ZM1482.07 999.762 1485.66 999.762 1485.66 1004.49 1482.07 1004.49ZM1475.46 999.762 1479.05 999.762 1479.05 1004.49 1475.46 1004.49ZM1468.99 999.762 1472.58 999.762 1472.58 1004.49 1468.99 1004.49ZM1462.38 999.762 1465.97 999.762 1465.97 1004.49 1462.38 1004.49ZM1455.91 999.762 1459.51 999.762 1459.51 1004.49 1455.91 1004.49ZM1411.8 999.762 1415.1 999.762 1415.1 1004.49 1411.8 1004.49ZM1405.19 999.762 1408.63 999.762 1408.63 1004.49 1405.19 1004.49ZM1398.72 999.762 1402.31 999.762 1402.31 1004.49 1398.72 1004.49ZM1392.11 999.762 1395.84 999.762 1395.84 1004.49 1392.11 1004.49ZM1385.64 999.762 1389.23 999.762 1389.23 1004.49 1385.64 1004.49ZM1115.33 999.762 1118.93 999.762 1118.93 1004.49 1115.33 1004.49ZM1108.72 999.762 1112.32 999.762 1112.32 1004.49 1108.72 1004.49ZM1102.4 999.762 1105.85 999.762 1105.85 1004.49 1102.4 1004.49ZM1095.93 999.762 1099.38 999.762 1099.38 1004.49 1095.93 1004.49ZM1089.47 999.762 1092.77 999.762 1092.77 1004.49 1089.47 1004.49ZM1045.06 999.762 1048.66 999.762 1048.66 1004.49 1045.06 1004.49ZM1038.6 999.762 1042.19 999.762 1042.19 1004.49 1038.6 1004.49ZM1032.27 999.762 1035.58 999.762 1035.58 1004.49 1032.27 1004.49ZM1025.66 999.762 1029.11 999.762 1029.11 1004.49 1025.66 1004.49ZM1019.2 999.762 1022.5 999.762 1022.5 1004.49 1019.2 1004.49ZM1445.13 998.185 1448.73 998.185 1448.73 1003.2 1445.13 1003.2ZM1435.65 998.185 1439.24 998.185 1439.24 1003.2 1435.65 1003.2ZM1429.04 998.185 1432.63 998.185 1432.63 1003.2 1429.04 1003.2ZM1420.99 998.185 1424.3 998.185 1424.3 1003.2 1420.99 1003.2ZM1349.43 998.185 1353.02 998.185 1353.02 1003.2 1349.43 1003.2ZM1341.96 998.185 1345.4 998.185 1345.4 1003.2 1341.96 1003.2ZM1334.34 998.185 1337.64 998.185 1337.64 1003.2 1334.34 1003.2ZM1326.72 998.185 1330.32 998.185 1330.32 1003.2 1326.72 1003.2ZM1318.96 998.185 1322.56 998.185 1322.56 1003.2 1318.96 1003.2ZM1311.63 998.185 1314.94 998.185 1314.94 1003.2 1311.63 1003.2ZM1303.87 998.185 1307.32 998.185 1307.32 1003.2 1303.87 1003.2ZM1296.26 998.185 1299.85 998.185 1299.85 1003.2 1296.26 1003.2ZM1204.72 998.185 1208.31 998.185 1208.31 1003.2 1204.72 1003.2ZM1197.25 998.185 1200.55 998.185 1200.55 1003.2 1197.25 1003.2ZM1189.63 998.185 1193.22 998.185 1193.22 1003.2 1189.63 1003.2ZM1181.87 998.185 1185.61 998.185 1185.61 1003.2 1181.87 1003.2ZM1174.25 998.185 1177.85 998.185 1177.85 1003.2 1174.25 1003.2ZM1166.78 998.185 1170.23 998.185 1170.23 1003.2 1166.78 1003.2ZM1159.16 998.185 1162.76 998.185 1162.76 1003.2 1159.16 1003.2ZM1151.55 998.185 1155.14 998.185 1155.14 1003.2 1151.55 1003.2ZM1080.13 998.185 1083.72 998.185 1083.72 1003.2 1080.13 1003.2ZM1072.08 998.185 1075.53 998.185 1075.53 1003.2 1072.08 1003.2ZM1065.61 998.185 1068.92 998.185 1068.92 1003.2 1065.61 1003.2ZM1055.84 998.185 1059.43 998.185 1059.43 1003.2 1055.84 1003.2ZM1286.15 993.262C1286.15 994.835 1286.15 1005.85 1286.15 1007.19 1286.6 1007.19 1287.27 1007.19 1287.72 1007.19 1287.72 1005.85 1287.72 994.835 1287.72 993.262 1287.72 993.262 1287.72 993.262 1286.15 993.262ZM1271.29 993.262C1271.29 994.835 1271.29 1005.85 1271.29 1007.19 1271.74 1007.19 1272.42 1007.19 1272.87 1007.19 1272.87 1005.85 1272.87 994.835 1272.87 993.262ZM1256.21 993.262C1256.21 994.835 1256.21 1005.85 1256.21 1007.19 1256.89 1007.19 1257.34 1007.19 1258.01 1007.19 1258.01 1005.85 1258.01 994.835 1258.01 993.262ZM1244.29 993.262C1244.29 994.835 1244.29 1005.85 1244.29 1007.19 1244.96 1007.19 1245.41 1007.19 1246.09 1007.19 1246.09 1005.85 1246.09 994.835 1246.09 993.262ZM1229.88 993.262C1229.88 994.835 1229.88 1005.85 1229.88 1007.19 1230.33 1007.19 1230.78 1007.19 1231.46 1007.19 1231.46 1005.85 1231.46 994.835 1231.46 993.262ZM1215.25 993.262C1215.25 994.835 1215.25 1005.85 1215.25 1007.19 1215.93 1007.19 1216.38 1007.19 1217.05 1007.19 1217.05 1005.85 1217.05 994.835 1217.05 993.262ZM1275.57 992.588C1275.57 992.588 1275.57 992.588 1275.57 993.262 1275.57 993.262 1275.57 993.262 1274.44 993.262 1274.44 993.262 1274.44 993.262 1274.44 1007.19 1274.44 1007.19 1274.44 1007.19 1284.57 1007.19 1284.57 1007.19 1284.57 1007.19 1284.57 993.262 1284.57 993.262 1284.57 993.262 1283.45 993.262 1283.45 993.262 1283.45 993.262 1283.45 992.588ZM1260.49 992.588C1260.49 992.588 1260.49 992.588 1260.49 993.262 1260.49 993.262 1260.49 993.262 1259.59 993.262 1259.59 993.262 1259.59 993.262 1259.59 1007.19 1259.59 1007.19 1259.59 1007.19 1269.72 1007.19 1269.72 1007.19 1269.72 1007.19 1269.72 993.262 1269.72 993.262 1269.72 993.262 1268.59 993.262 1268.59 993.262 1268.59 993.262 1268.59 992.588ZM1248.56 992.588C1248.56 992.588 1248.56 992.588 1248.56 993.262 1248.56 993.262 1248.56 993.262 1247.66 993.262 1247.66 993.262 1247.66 993.262 1247.66 1007.19 1247.66 1007.19 1247.66 1007.19 1254.86 1007.19 1254.86 1007.19 1254.86 1007.19 1254.86 993.262 1254.86 993.262 1254.86 993.262 1253.74 993.262 1253.74 993.262 1253.74 993.262 1253.74 992.588ZM1234.16 992.588 1234.16 993.262C1234.16 993.262 1234.16 993.262 1233.03 993.262 1233.03 993.262 1233.03 993.262 1233.03 1007.19 1233.03 1007.19 1233.03 1007.19 1242.94 1007.19 1242.94 1007.19 1242.94 1007.19 1242.94 993.262 1242.94 993.262 1242.94 993.262 1241.81 993.262 1241.81 993.262 1241.81 993.262 1241.81 992.588ZM1219.53 992.588C1219.53 992.588 1219.53 992.588 1219.53 993.262 1219.53 993.262 1219.53 993.262 1218.4 993.262 1218.4 993.262 1218.4 993.262 1218.4 1007.19 1218.4 1007.19 1218.4 1007.19 1228.31 1007.19 1228.31 1007.19 1228.31 1007.19 1228.31 993.262 1228.31 993.262 1228.31 993.262 1227.18 993.262 1227.18 993.262 1227.18 993.262 1227.18 992.588ZM1482.07 990.586 1485.66 990.586 1485.66 995.318 1482.07 995.318ZM1475.46 990.586 1479.05 990.586 1479.05 995.318 1475.46 995.318ZM1468.99 990.586 1472.58 990.586 1472.58 995.318 1468.99 995.318ZM1462.38 990.586 1465.97 990.586 1465.97 995.318 1462.38 995.318ZM1455.91 990.586 1459.51 990.586 1459.51 995.318 1455.91 995.318ZM1411.8 990.586 1415.1 990.586 1415.1 995.318 1411.8 995.318ZM1405.19 990.586 1408.63 990.586 1408.63 995.318 1405.19 995.318ZM1398.72 990.586 1402.31 990.586 1402.31 995.318 1398.72 995.318ZM1392.11 990.586 1395.84 990.586 1395.84 995.318 1392.11 995.318ZM1385.64 990.586 1389.23 990.586 1389.23 995.318 1385.64 995.318ZM1115.33 990.586 1118.93 990.586 1118.93 995.318 1115.33 995.318ZM1108.72 990.586 1112.32 990.586 1112.32 995.318 1108.72 995.318ZM1102.4 990.586 1105.85 990.586 1105.85 995.318 1102.4 995.318ZM1095.93 990.586 1099.38 990.586 1099.38 995.318 1095.93 995.318ZM1089.47 990.586 1092.77 990.586 1092.77 995.318 1089.47 995.318ZM1045.06 990.586 1048.66 990.586 1048.66 995.318 1045.06 995.318ZM1038.6 990.586 1042.19 990.586 1042.19 995.318 1038.6 995.318ZM1032.27 990.586 1035.58 990.586 1035.58 995.318 1032.27 995.318ZM1025.66 990.586 1029.11 990.586 1029.11 995.318 1025.66 995.318ZM1019.2 990.586 1022.5 990.586 1022.5 995.318 1019.2 995.318ZM1285.02 990.341C1285.02 990.79 1285.02 991.015 1285.02 991.464 1285.02 991.464 1285.02 991.464 1288.62 991.464 1288.62 991.464 1288.62 991.464 1288.85 991.464 1288.85 991.015 1288.85 990.79 1288.85 990.341 1287.95 990.341 1285.92 990.341 1285.02 990.341ZM1270.17 990.341C1270.17 990.79 1270.17 991.015 1270.17 991.464L1273.77 991.464C1273.77 991.464 1273.77 991.464 1273.99 991.464 1273.99 991.015 1273.99 990.79 1273.99 990.341 1273.09 990.341 1271.07 990.341 1270.17 990.341ZM1255.31 990.341C1255.31 990.79 1255.31 991.015 1255.31 991.464L1258.91 991.464C1258.91 991.464 1258.91 991.464 1259.14 991.464 1259.14 991.015 1259.14 990.79 1259.14 990.341 1258.01 990.341 1256.21 990.341 1255.31 990.341ZM1243.39 990.341C1243.39 990.79 1243.39 991.015 1243.39 991.464L1246.76 991.464C1246.76 991.464 1246.76 991.464 1247.21 991.464 1247.21 991.015 1247.21 990.79 1247.21 990.341 1246.31 990.341 1244.29 990.341 1243.39 990.341ZM1228.76 990.341C1228.76 990.79 1228.76 991.015 1228.76 991.464 1228.76 991.464 1228.76 991.464 1232.36 991.464 1232.36 991.464 1232.36 991.464 1232.58 991.464 1232.58 991.015 1232.58 990.79 1232.58 990.341 1231.68 990.341 1229.66 990.341 1228.76 990.341ZM1214.13 990.341C1214.13 990.79 1214.13 991.015 1214.13 991.464L1217.73 991.464C1217.73 991.464 1217.73 991.464 1217.95 991.464 1217.95 991.015 1217.95 990.79 1217.95 990.341 1217.05 990.341 1215.03 990.341 1214.13 990.341ZM1368.11 990.299 1371.7 990.299 1371.7 994.887 1368.11 994.887ZM1132.87 990.299 1136.46 990.299 1136.46 994.887 1132.87 994.887ZM1275.57 990.116C1275.57 990.116 1275.57 990.116 1275.57 991.015L1283.45 991.015C1283.45 991.015 1283.45 991.015 1283.45 990.116 1283.45 990.116 1283.45 990.116 1275.57 990.116ZM1260.49 990.116C1260.49 990.116 1260.49 990.116 1260.49 991.015L1268.59 991.015C1268.59 991.015 1268.59 991.015 1268.59 990.116 1268.59 990.116 1268.59 990.116 1260.49 990.116ZM1248.56 990.116C1248.56 990.116 1248.56 990.116 1248.56 991.015L1253.74 991.015C1253.74 991.015 1253.74 991.015 1253.74 990.116 1253.74 990.116 1253.74 990.116 1248.56 990.116ZM1234.16 990.116C1234.16 990.116 1234.16 990.116 1234.16 990.509L1234.16 991.015C1234.16 991.015 1234.16 991.015 1241.81 991.015 1241.81 991.015 1241.81 991.015 1241.81 990.116 1241.81 990.116 1241.81 990.116 1234.16 990.116ZM1219.53 990.116C1219.53 990.116 1219.53 990.116 1219.53 991.015L1227.18 991.015C1227.18 991.015 1227.18 991.015 1227.18 990.116 1227.18 990.116 1227.18 990.116 1219.53 990.116ZM1445.13 989.439 1448.73 989.439 1448.73 993.884 1445.13 993.884ZM1435.65 989.439 1439.24 989.439 1439.24 993.884 1435.65 993.884ZM1429.04 989.439 1432.63 989.439 1432.63 993.884 1429.04 993.884ZM1420.99 989.439 1424.3 989.439 1424.3 993.884 1420.99 993.884ZM1080.13 989.439 1083.72 989.439 1083.72 993.884 1080.13 993.884ZM1072.08 989.439 1075.53 989.439 1075.53 993.884 1072.08 993.884ZM1065.61 989.439 1068.92 989.439 1068.92 993.884 1065.61 993.884ZM1055.84 989.439 1059.43 989.439 1059.43 993.884 1055.84 993.884ZM1349.43 988.722 1353.02 988.722 1353.02 993.454 1349.43 993.454ZM1341.96 988.722 1345.4 988.722 1345.4 993.454 1341.96 993.454ZM1334.34 988.722 1337.64 988.722 1337.64 993.454 1334.34 993.454ZM1326.72 988.722 1330.32 988.722 1330.32 993.454 1326.72 993.454ZM1318.96 988.722 1322.56 988.722 1322.56 993.454 1318.96 993.454ZM1311.63 988.722 1314.94 988.722 1314.94 993.454 1311.63 993.454ZM1303.87 988.722 1307.32 988.722 1307.32 993.454 1303.87 993.454ZM1296.26 988.722 1299.85 988.722 1299.85 993.454 1296.26 993.454ZM1204.72 988.722 1208.31 988.722 1208.31 993.454 1204.72 993.454ZM1197.25 988.722 1200.55 988.722 1200.55 993.454 1197.25 993.454ZM1189.63 988.722 1193.22 988.722 1193.22 993.454 1189.63 993.454ZM1181.87 988.722 1185.61 988.722 1185.61 993.454 1181.87 993.454ZM1174.25 988.722 1177.85 988.722 1177.85 993.454 1174.25 993.454ZM1166.78 988.722 1170.23 988.722 1170.23 993.454 1166.78 993.454ZM1159.16 988.722 1162.76 988.722 1162.76 993.454 1159.16 993.454ZM1151.55 988.722 1155.14 988.722 1155.14 993.454 1151.55 993.454ZM1272.64 987.195C1272.64 987.195 1272.64 987.195 1272.64 987.644 1272.64 987.869 1272.64 988.318 1272.42 988.543L1287.95 988.543C1288.4 988.543 1288.62 988.318 1288.62 987.869 1288.62 987.42 1288.4 987.195 1287.95 987.195 1287.95 987.195 1287.95 987.195 1287.5 987.195 1287.5 987.195 1287.5 987.195 1272.64 987.195ZM1214.35 987.195C1213.9 987.195 1213.68 987.42 1213.68 987.869 1213.68 988.318 1213.9 988.543 1214.35 988.543 1214.35 988.543 1214.35 988.543 1229.66 988.543 1229.43 988.318 1229.43 987.869 1229.43 987.644 1229.43 987.644 1229.43 987.644 1229.43 987.195 1229.43 987.195 1229.43 987.195 1215.7 987.195ZM1246.12 986.743C1246.12 986.743 1246.12 986.743 1246.12 986.973 1246.12 986.973 1245.89 987.202 1245.89 987.202 1245.66 986.973 1245.66 986.973 1245.66 986.973 1245.66 986.973 1245.89 986.973 1245.89 986.973 1245.89 986.973 1246.12 986.973 1246.12 986.743ZM1246.12 986.743C1246.12 986.743 1246.34 986.743 1246.34 986.743L1246.57 986.743 1246.8 986.743C1246.8 986.743 1247.25 986.973 1247.03 987.202 1247.03 987.202 1247.03 987.432 1246.8 987.202 1246.57 986.973 1246.57 986.973 1246.34 986.973 1246.34 986.973 1246.34 986.743 1246.12 986.743ZM1255.1 986.54C1254.87 986.986 1254.64 987.209 1254.64 987.209 1254.41 987.432 1254.41 986.986 1254.41 986.986 1254.64 986.986 1254.87 986.763 1254.87 986.763 1255.1 986.54 1255.1 986.54 1255.1 986.54ZM1235.93 986.313C1235.93 986.313 1235.93 986.313 1236.15 986.543 1236.37 986.543 1236.37 986.772 1236.37 986.772 1236.37 987.002 1236.15 987.002 1236.15 987.002 1235.93 987.002 1235.93 987.002 1235.93 987.002 1236.15 986.543 1235.93 986.543 1235.93 986.543 1235.93 986.543 1235.93 986.543 1235.93 986.313ZM1246.12 986.285C1246.12 986.285 1246.34 986.285 1246.12 986.514 1246.12 986.514 1246.12 986.514 1246.12 986.743 1246.12 986.743 1246.12 986.514 1245.89 986.514 1245.89 986.514 1246.12 986.514 1246.12 986.285ZM1241.35 986.249C1241.35 986.249 1241.35 986.249 1241.35 986.473 1241.12 986.473 1241.12 986.473 1241.12 986.473 1241.12 986.473 1241.12 986.473 1241.35 986.249ZM1237.12 986.141C1237.34 986.356 1237.34 986.356 1237.34 986.356 1237.34 986.572 1237.12 986.787 1237.12 986.787 1237.34 987.002 1237.12 987.002 1237.12 987.002 1237.12 987.002 1237.12 987.002 1236.69 987.002 1236.69 987.002 1236.48 987.002 1236.48 987.002 1236.48 987.002 1236.69 986.787 1236.69 986.787 1236.69 986.787 1236.69 986.787 1236.91 986.572 1236.91 986.572 1236.69 986.572 1236.69 986.572 1236.48 986.572 1236.48 986.572 1236.48 986.572 1236.48 986.572 1236.48 986.356 1236.48 986.356 1236.69 986.356 1237.12 986.141 1237.12 986.141ZM1245.89 986.055C1245.89 986.055 1245.89 986.285 1245.89 986.514 1245.89 986.514 1245.89 986.514 1245.89 986.743 1245.89 986.743 1245.66 986.973 1245.66 986.743 1245.66 986.743 1245.66 986.514 1245.66 986.285 1245.66 986.285 1245.66 986.055 1245.89 986.055ZM1244.98 986.055 1245 986.055 1244.98 986.285ZM1240.42 986.025C1240.42 985.801 1240.66 986.025 1240.66 986.025 1240.66 986.025 1240.66 986.025 1240.42 986.249 1240.42 986.249 1240.42 986.249 1240.42 986.025ZM1240.19 986.025C1240.42 986.025 1240.42 986.697 1240.42 986.697 1240.19 986.921 1240.19 986.921 1240.19 986.921 1239.96 986.921 1239.96 986.473 1239.96 986.473 1240.19 986.473 1240.19 986.025 1240.19 986.025ZM1260.04 985.855C1260.27 985.855 1260.5 986.084 1260.5 986.084 1260.5 986.084 1260.5 986.084 1260.95 986.313 1261.17 986.543 1261.4 986.543 1261.4 986.543 1261.63 986.313 1261.63 986.543 1261.63 986.543 1261.4 986.543 1261.17 986.772 1261.17 986.772 1260.95 987.002 1260.72 986.772 1260.72 986.772 1260.27 986.084 1260.27 986.084 1260.27 986.084 1260.27 985.855 1260.04 985.855 1260.04 985.855ZM1241.58 985.801C1241.82 986.025 1241.82 986.025 1241.82 986.025 1241.82 986.025 1241.58 986.249 1241.58 986.249 1241.58 986.249 1241.58 986.249 1241.82 986.473 1241.82 986.473 1241.58 986.473 1241.58 986.473 1241.58 986.473 1241.35 986.249 1241.35 986.249 1241.35 986.249 1241.35 986.025 1241.12 986.025 1241.12 986.025 1241.35 986.025 1241.58 986.025 1241.58 986.025 1241.58 986.025 1241.58 985.801ZM1240.66 985.801C1240.66 985.801 1240.89 985.801 1240.89 985.801 1240.89 985.801 1240.66 986.025 1240.66 986.025 1240.66 986.025 1240.66 986.025 1240.66 985.801ZM1241.58 985.577C1241.58 985.577 1241.58 985.577 1241.82 985.801 1241.82 985.801 1241.82 985.801 1241.58 985.801 1241.58 985.801 1241.58 985.801 1241.58 985.577ZM1245.21 985.367C1245.09 985.596 1245.04 985.826 1245.01 985.998L1245 986.03 1244.98 986.055C1244.98 986.055 1245.21 985.367 1245.21 985.367ZM1241.12 985.353C1241.12 985.353 1241.35 985.353 1241.35 985.353 1241.58 985.577 1241.58 985.353 1241.58 985.353 1241.58 985.353 1241.58 985.577 1241.58 985.577 1241.58 985.577 1241.35 985.801 1241.35 985.801 1241.35 985.801 1241.35 985.577 1241.35 985.577 1241.35 985.577 1241.35 985.577 1241.12 985.353ZM1265.65 985.179C1265.65 985.179 1265.65 985.404 1265.65 985.404 1265.65 985.404 1265.43 985.629 1265.43 985.855 1265.43 985.855 1265.65 985.855 1265.86 985.855 1265.86 985.855 1266.08 985.629 1266.08 985.855 1266.08 985.855 1266.08 986.08 1265.86 986.08 1265.86 986.08 1265.65 986.08 1265.65 986.08 1265.65 986.08 1265.43 986.08 1265.43 986.08 1265.43 986.08 1265.43 986.08 1265.43 986.305 1265.43 986.305 1265.65 986.981 1265.43 987.206 1265.43 987.206 1265.22 987.432 1265.22 987.206 1265.22 987.206 1265 986.981 1264.79 986.981 1264.79 986.981 1264.79 986.981 1265 986.981 1265 986.981 1265.22 986.981 1265.22 986.756 1265.22 986.756 1265.22 986.531 1265.22 986.305 1265.22 986.305 1265.22 986.08 1265 986.305 1265 986.305 1264.79 986.305 1264.79 986.305 1264.79 986.305 1264.36 986.756 1264.14 986.305 1264.14 986.305 1263.92 986.08 1264.14 986.08 1264.14 986.08 1264.36 986.08 1264.57 986.08 1264.57 986.08 1264.79 986.08 1265 986.08 1265 986.08 1265.22 985.855 1265 985.855 1265 985.855 1265.22 985.855 1265.22 985.855 1265.22 985.855 1265.43 985.629 1265.22 985.629 1265.22 985.629 1265 985.629 1265 985.404 1265 985.404 1265.22 985.404 1265.22 985.404 1265.22 985.404 1265.43 985.179 1265.65 985.179ZM1245.43 985.138C1245.43 985.424 1245.82 985.138 1245.82 985.138 1245.82 985.138 1245.82 985.138 1245.63 985.424 1245.43 985.424 1245.43 985.424 1245.43 985.424 1245.24 985.138 1245.43 985.138 1245.43 985.138ZM1244.75 985.138 1244.75 985.367C1244.75 985.367 1244.98 985.596 1244.98 985.596 1244.98 985.826 1244.75 986.285 1244.75 986.285 1244.75 986.285 1244.75 986.514 1244.75 986.514 1244.75 986.514 1244.75 986.514 1244.98 986.285L1244.98 986.313C1244.98 986.457 1244.98 986.629 1244.98 986.743 1244.98 986.743 1244.98 987.202 1244.75 987.202 1244.75 987.202 1244.75 987.202 1244.75 986.973 1244.75 986.973 1244.52 986.743 1244.52 986.743 1244.75 986.055 1244.75 986.055 1244.75 986.055 1244.75 986.055 1244.75 985.826 1244.52 985.596 1244.52 985.596 1244.52 985.367 1244.75 985.138ZM1263.68 984.994C1263.68 984.994 1263.92 985.224 1263.68 985.224 1263.68 985.224 1263.68 985.453 1263.68 985.453 1263.68 985.453 1263.68 985.682 1263.68 985.682 1263.68 985.682 1263.68 985.682 1263.92 985.453 1263.92 985.453 1263.92 985.682 1263.92 985.682 1263.92 985.682 1263.68 986.141 1263.45 986.141 1263.45 986.141 1263.21 985.682 1263.45 985.682 1263.45 985.682 1263.45 985.453 1263.45 985.453 1263.45 985.453 1263.68 985.224 1263.68 984.994ZM1255.79 984.978C1255.79 985.201 1255.56 985.201 1255.56 985.201 1255.56 985.424 1255.56 985.424 1255.56 985.424 1255.79 985.424 1255.79 985.424 1255.79 985.424 1256.02 985.424 1255.56 985.647 1255.56 985.647 1255.79 985.647 1255.79 985.87 1255.79 985.87 1255.79 985.87 1255.56 985.87 1255.56 985.87 1255.56 986.094 1255.56 986.094 1255.56 986.094 1255.79 986.094 1255.79 986.094 1255.79 986.094 1255.79 986.094 1255.79 986.317 1255.79 986.317L1255.78 986.317 1255.85 986.374C1255.91 986.344 1255.97 986.285 1255.97 986.285 1255.97 986.285 1256.21 986.524 1256.21 986.524 1256.45 986.524 1256.45 986.763 1256.45 986.763 1256.45 987.002 1256.21 987.002 1256.21 987.002 1255.97 987.002 1255.97 986.763 1255.97 986.763L1255.75 986.317 1255.56 986.317C1255.56 986.54 1255.56 986.763 1255.56 986.763 1255.56 986.986 1255.56 986.986 1255.56 986.986 1255.33 987.432 1255.33 986.986 1255.33 986.986 1255.33 986.986 1255.33 986.54 1255.33 986.54 1255.33 986.54 1255.1 986.54 1255.1 986.54 1254.87 986.54 1254.87 986.54 1254.87 986.54 1254.87 986.54 1254.87 986.317 1254.87 986.317 1255.1 986.317 1255.33 986.317 1255.33 986.317 1255.33 986.317 1255.33 986.317 1255.33 986.094 1255.1 986.094 1255.1 986.094 1255.1 986.094 1255.1 986.094 1255.33 985.87 1255.33 985.87 1255.33 985.647 1255.1 985.87 1255.1 985.87 1254.87 985.87 1254.87 985.647 1254.87 985.647 1254.87 985.647 1255.33 985.647 1255.33 985.647 1255.33 985.647 1255.33 985.647 1255.33 985.424 1255.56 985.201 1255.79 984.978 1255.79 984.978ZM1255.1 984.978C1255.1 984.978 1255.1 985.201 1255.1 985.201 1255.1 985.201 1255.33 985.201 1255.33 985.201 1255.33 985.424 1255.33 985.424 1255.33 985.424 1255.33 985.201 1255.1 985.424 1255.1 985.424 1255.1 985.424 1254.87 985.424 1254.87 985.424 1254.87 985.201 1254.87 985.201 1254.87 985.201 1254.64 985.201 1254.41 985.647 1254.41 985.647 1254.18 986.094 1253.72 985.647 1253.72 985.647 1253.72 985.647 1253.72 985.424 1253.72 985.424 1253.72 985.201 1253.95 985.424 1253.95 985.424 1253.95 985.424 1254.18 985.424 1254.18 985.424 1254.18 985.424 1254.18 985.424 1255.1 984.978ZM1264.57 984.953C1264.57 984.953 1264.57 984.953 1265 984.953 1265 984.953 1265.22 984.953 1265.22 984.953 1265.22 985.179 1264.79 985.179 1264.79 985.179 1264.79 985.179 1264.57 985.179 1264.57 985.179 1264.57 985.179 1264.57 985.179 1264.57 984.953ZM1255.56 984.755C1256.02 984.755 1256.02 984.755 1256.02 984.755 1256.02 984.978 1255.79 984.978 1255.79 984.978 1255.79 984.978 1255.79 984.978 1255.56 984.755ZM1241.82 984.681C1241.82 984.681 1242.05 984.681 1242.05 984.681 1242.05 984.681 1242.05 984.681 1242.28 984.905 1242.28 984.905 1242.05 985.129 1242.05 985.129 1242.05 985.129 1242.05 985.353 1242.05 985.353 1242.05 985.353 1242.05 985.577 1242.05 985.577 1242.05 985.577 1242.05 985.577 1242.05 986.249 1242.05 986.473 1242.05 986.921 1242.05 986.921 1242.05 987.145 1242.05 987.145 1242.05 987.145 1241.82 987.145 1241.58 986.921 1241.58 986.921 1241.58 986.921 1241.35 986.697 1241.35 986.697 1241.35 986.697 1241.82 986.697 1241.82 986.697 1242.05 986.921 1241.82 986.473 1241.82 986.473L1241.82 986.025 1241.82 985.801C1241.82 985.801 1241.82 985.577 1241.82 985.577 1241.82 985.577 1241.82 985.577 1241.82 985.129 1241.82 984.905 1241.58 985.129 1241.58 985.129 1241.58 985.129 1241.12 985.353 1241.12 985.353 1241.12 985.353 1241.12 985.353 1241.12 985.577L1241.12 986.025C1241.12 986.025 1241.12 986.025 1241.12 986.473 1241.12 986.473 1241.12 986.473 1241.12 986.697 1241.12 986.921 1241.12 986.921 1241.12 986.921 1240.89 986.921 1240.89 986.697 1240.89 986.697 1240.89 986.697 1240.66 986.697 1240.66 986.697 1240.66 986.473 1240.66 986.473 1240.66 986.473 1240.66 986.473 1240.89 986.473 1240.89 986.473 1240.89 986.473 1240.89 986.473 1240.89 986.361L1240.89 985.801 1240.89 985.577C1240.89 985.577 1240.89 985.577 1240.66 985.577 1240.42 985.577 1240.42 985.577 1240.42 985.577 1240.42 985.577 1240.42 985.577 1240.89 985.353 1240.89 985.129 1241.12 984.905 1241.12 984.905 1241.12 984.905 1241.12 985.129 1241.12 985.129 1241.12 985.129 1241.35 985.129 1241.35 985.129 1241.58 984.905 1241.82 984.681 1241.82 984.681ZM1235.96 984.564C1235.96 984.564 1235.96 984.564 1236.19 984.789 1236.19 984.789 1235.96 985.24 1235.96 985.24 1235.74 985.24 1235.74 985.465 1235.74 985.465 1235.96 985.465 1235.96 985.465 1235.96 985.465 1235.96 985.691 1235.74 985.691 1235.74 985.691 1235.51 985.916 1235.29 985.691 1235.29 985.691 1235.29 985.916 1235.06 985.916 1235.06 985.916 1235.06 986.141 1234.83 986.141 1234.83 986.141 1234.61 985.916 1234.83 985.465 1234.83 985.465 1234.83 985.465 1234.83 985.465 1234.83 985.24 1234.83 985.24 1234.83 985.015 1234.83 985.015 1234.61 984.789 1234.83 984.789 1234.83 984.789 1234.83 984.789 1235.06 985.015 1235.06 985.015 1235.29 985.24 1235.29 985.465 1235.29 985.465 1235.51 985.465 1235.51 985.015 1235.51 985.015 1235.51 985.015 1235.51 985.015 1235.29 985.015 1235.29 984.789 1235.29 984.789 1235.29 984.789 1235.51 984.789 1235.51 984.789 1235.51 984.789 1235.74 984.564 1235.96 984.564 1235.96 984.564ZM1245.43 984.449C1245.43 984.449 1245.66 984.449 1245.66 984.679 1245.66 984.679 1245.89 984.679 1245.89 984.679 1245.89 984.679 1245.89 984.679 1246.12 984.679 1246.12 984.679 1246.12 984.679 1246.12 984.908 1246.12 984.908 1246.12 985.138 1246.12 985.138 1246.12 985.138 1246.57 984.908 1246.57 984.679 1246.57 984.679 1246.57 984.449 1246.8 984.449 1246.8 984.449 1247.03 984.679 1246.8 984.679 1246.8 984.679 1246.34 985.138 1246.34 985.138 1246.34 985.138 1246.12 985.367 1246.12 985.367 1246.12 985.367 1246.34 985.596 1246.57 985.367 1246.57 985.367 1246.8 985.367 1246.8 985.367 1246.8 985.367 1246.57 985.596 1246.57 985.826 1246.57 985.826 1246.57 986.514 1246.57 986.514 1246.57 986.514 1246.57 986.743 1246.57 986.743 1246.57 986.743 1246.57 986.514 1246.34 986.514 1246.34 986.514 1246.34 986.285 1246.34 985.826 1246.34 985.826 1246.57 985.367 1246.34 985.596 1246.34 985.596 1246.12 985.596 1245.89 985.596 1245.89 985.596 1245.66 985.826 1245.89 986.055 1245.89 986.055 1245.89 985.826 1245.66 985.826 1245.66 985.826 1245.66 985.826 1245.43 986.055 1245.43 986.055 1245.21 986.285 1245.21 986.055L1245 986.055 1245 986.03 1245.21 985.826C1245.89 985.367 1245.89 985.367 1245.89 985.367 1245.89 985.367 1245.89 985.138 1245.89 984.908 1245.89 984.908 1245.66 984.908 1245.66 984.908 1245.66 984.908 1245.43 985.138 1245.21 984.908 1245.21 984.908 1245.21 984.679 1245.21 984.679 1245.21 984.679 1245.43 984.679 1245.43 984.449ZM1266.27 984.446C1266.35 984.446 1266.4 984.503 1266.3 984.728 1266.3 984.728 1266.08 984.953 1265.86 985.179 1265.86 985.179 1266.08 984.728 1265.86 984.728 1265.86 984.728 1265.86 984.503 1266.08 984.503 1266.08 984.503 1266.19 984.446 1266.27 984.446ZM1251.38 984.421C1251.43 984.392 1251.49 984.392 1251.49 984.507 1251.49 984.507 1251.71 984.736 1251.71 984.736 1251.71 984.736 1251.27 985.195 1251.27 985.195 1251.27 985.195 1250.82 985.654 1250.82 985.654 1250.82 985.654 1250.82 985.883 1250.82 985.883 1251.04 985.654 1251.49 985.654 1251.49 985.654 1251.49 985.654 1251.71 985.654 1251.71 985.654 1251.71 985.654 1251.71 985.883 1251.49 985.883 1251.49 985.883 1251.04 985.883 1250.82 986.113 1250.82 986.113 1250.38 986.342 1250.38 986.571 1250.38 986.571 1250.38 986.571 1250.15 986.571 1250.15 986.571 1249.93 986.571 1249.71 986.571 1249.71 986.571 1249.71 986.571 1249.49 986.571 1249.49 986.571 1249.27 986.342 1249.49 986.342 1249.49 986.342 1250.15 986.113 1250.38 986.113 1250.38 986.113 1250.38 986.113 1250.38 985.883 1250.38 985.654 1251.04 985.195 1251.04 984.966 1251.04 984.966 1251.27 984.736 1251.04 984.736 1251.04 984.736 1251.04 984.736 1250.82 984.966 1250.82 984.966 1250.38 985.195 1250.38 985.195 1250.38 985.195 1249.93 984.966 1250.15 984.736 1250.15 984.736 1250.15 984.736 1250.38 984.736 1250.38 984.736 1250.38 984.966 1250.6 984.736 1250.6 984.736 1250.82 984.736 1251.27 984.507 1251.27 984.507 1251.32 984.449 1251.38 984.421ZM1256.71 984.309C1256.94 984.086 1256.94 984.309 1256.94 984.309 1257.17 984.532 1256.71 984.532 1256.71 984.532 1256.71 984.532 1256.25 984.532 1256.25 984.532 1256.25 984.309 1256.71 984.309 1256.71 984.309ZM1254.64 984.309C1254.64 984.532 1254.87 984.532 1254.87 984.532 1254.87 984.755 1254.64 984.755 1254.64 984.755 1254.41 984.755 1254.41 984.532 1254.41 984.532 1254.41 984.309 1254.64 984.309 1254.64 984.309ZM1264.79 984.277C1264.79 984.277 1264.79 984.277 1265 984.277 1265 984.277 1265 984.052 1265.22 984.277 1265.22 984.277 1265.22 984.277 1265.22 984.503 1265.22 984.503 1265.22 984.728 1265.22 984.728 1265.22 984.728 1265 984.503 1265 984.728 1265 984.728 1265 984.728 1264.79 984.728 1264.79 984.728 1264.79 984.503 1265 984.503 1265 984.503 1264.79 984.503 1264.79 984.277ZM1244.75 984.22C1244.75 984.22 1244.98 984.22 1244.98 984.449 1244.98 984.449 1245.21 984.449 1244.98 984.679 1244.98 984.679 1244.75 984.908 1244.75 984.908 1244.75 984.794 1244.75 984.679 1244.75 984.679ZM1256.02 983.863C1256.02 983.863 1255.79 984.086 1255.79 984.086 1255.56 984.086 1255.79 984.309 1255.79 984.309 1255.56 984.532 1255.56 984.309 1255.56 984.309 1255.33 984.086 1255.33 984.086 1255.33 984.086 1255.33 984.086 1255.56 984.086 1255.56 984.086 1255.56 984.086 1255.56 984.086 1256.02 983.863ZM1264.14 983.827C1264.14 983.827 1264.14 984.052 1264.36 984.052 1264.36 984.052 1264.36 984.277 1264.14 984.503 1264.14 984.503 1264.14 984.052 1263.92 984.052 1263.92 984.052 1263.92 983.827 1264.14 983.827ZM1264.79 983.602 1265.22 983.602C1265.22 983.602 1265.22 983.602 1265.43 983.602 1265.43 983.602 1265.43 983.827 1265.65 983.602 1265.65 983.602 1265.65 983.827 1265.65 983.827 1265.65 983.827 1265.65 984.052 1265.65 984.052 1265.65 984.277 1265.65 984.503 1265.65 984.503 1265.65 984.503 1265.86 984.277 1265.86 984.277 1265.86 984.277 1265.86 984.277 1265.86 984.728 1265.86 984.728 1265.65 984.728 1265.65 984.953 1265.65 984.953 1265.43 985.179 1265.43 984.953 1265.22 984.953 1265.22 984.953 1265.22 984.953 1265.22 984.728 1265.22 984.728 1265.22 984.728 1265.43 984.953 1265.43 984.728 1265.43 984.728 1265.43 984.728 1265.43 984.728 1265.43 984.503 1265.43 984.503 1265.43 984.503 1265.43 984.277 1265.43 984.277 1265.65 984.052 1265.43 984.052 1265.43 984.052 1265.43 983.827 1265.43 983.827 1265.43 983.827 1265.22 984.052 1265.22 984.052 1265.22 984.052 1265.22 984.052 1265 983.827 1265 983.827 1265 983.827 1265 984.052 1265 984.052 1264.79 984.052 1264.79 984.052 1264.79 984.052 1264.79 984.052 1264.79 983.827 1264.79 983.827 1265 983.602 1264.79 983.602ZM1272.64 983.6C1272.64 983.6 1272.64 983.6 1272.64 985.622 1272.64 985.622 1272.64 985.622 1287.5 985.622 1288.17 985.622 1288.62 985.172 1288.62 984.723 1288.62 984.049 1288.17 983.6 1287.5 983.6ZM1215.7 983.6C1215.03 983.6 1214.58 984.049 1214.58 984.723 1214.58 985.172 1215.03 985.622 1215.7 985.622 1215.7 985.622 1215.7 985.622 1229.43 985.622L1229.43 983.6C1229.43 983.6 1229.43 983.6 1215.7 983.6ZM1260.04 983.561C1260.04 983.561 1260.27 983.561 1260.27 983.561 1260.27 983.561 1260.27 984.019 1260.27 984.019 1260.27 984.019 1260.27 984.249 1260.27 984.249 1260.27 984.249 1260.27 984.249 1260.27 985.166 1260.27 985.166 1260.72 984.937 1260.72 984.937 1260.95 984.937 1260.95 984.708 1260.95 984.708 1260.95 984.708 1261.17 984.937 1261.17 984.937 1261.4 985.166 1260.95 985.166 1260.95 985.166 1260.72 985.166 1260.5 985.396 1260.5 985.396 1260.5 985.396 1260.5 985.396 1260.04 985.396 1260.04 985.625 1260.04 985.625 1260.04 985.625 1260.04 985.855 1260.04 985.855 1260.04 985.855 1260.04 985.855 1259.82 986.772 1259.37 986.772 1258.92 987.002 1258.69 986.772 1258.69 986.772 1258.46 986.772 1258.92 986.543 1258.92 986.543 1259.14 986.772 1259.37 986.543 1259.59 986.313 1259.82 986.084 1259.82 985.625 1259.82 985.625 1259.37 985.855 1258.92 986.084 1258.92 986.084 1258.92 986.313 1258.69 986.084 1258.69 986.084 1258.46 986.084 1258.69 985.855 1258.69 985.855 1258.69 985.625 1258.92 985.625 1258.92 985.625 1258.92 985.855 1259.14 985.625 1259.14 985.625 1259.14 985.625 1259.14 985.625 1259.82 985.396 1260.04 984.478 1260.04 983.561 1260.04 983.561ZM1247.03 983.561C1247.03 983.811 1247.03 983.811 1247.03 983.811 1247.25 983.811 1247.25 984.062 1247.25 984.062 1247.03 984.313 1246.58 984.313 1246.58 984.313 1246.8 984.313 1246.8 984.062 1246.8 984.062L1246.56 984.085 1246.35 984.313C1245.9 984.564 1245.67 984.564 1245.67 984.564 1245.67 984.313 1245.9 984.313 1245.9 984.313 1245.9 984.313 1246.35 984.062 1246.35 984.062 1246.58 984.062 1246.58 983.811 1246.58 983.811 1246.8 983.561 1247.03 983.561 1247.03 983.561ZM1241.82 983.561C1241.82 983.561 1242.28 983.561 1242.28 983.561 1242.28 983.561 1242.05 984.009 1242.05 984.009 1242.05 984.009 1241.82 984.009 1241.82 984.009 1241.82 983.785 1241.82 983.785 1241.82 983.785 1241.58 983.785 1241.12 984.233 1241.12 984.233 1241.12 984.233 1241.12 984.233 1241.12 984.457 1241.12 984.457 1241.12 984.457 1241.35 984.457 1241.35 984.233 1241.58 984.233 1241.58 984.233 1241.58 984.233 1241.82 984.233 1241.82 984.233 1242.05 984.233 1242.05 984.457 1242.05 984.457 1242.05 984.681 1241.82 984.681 1241.82 984.681 1241.58 984.457 1241.35 984.681 1241.35 984.681 1241.35 984.681 1241.12 984.905 1241.12 984.905 1241.12 984.905 1241.12 984.681 1241.12 984.681 1240.89 984.457 1240.89 984.457 1240.89 984.457 1240.89 984.457 1240.89 984.457 1240.66 984.457 1240.66 984.681 1240.66 984.681 1240.66 984.681 1240.89 984.905 1240.42 985.129 1240.42 985.129 1240.19 985.353 1239.96 985.353 1239.96 985.353 1240.42 985.129 1240.42 984.905 1240.42 984.905 1240.42 984.681 1240.19 984.681 1240.19 984.681 1240.19 984.681 1239.96 984.905 1239.96 984.905 1239.73 984.905 1239.73 984.681 1239.73 984.681 1239.96 984.681 1240.19 984.457 1240.19 984.457 1240.19 984.457 1240.19 984.457 1240.42 984.457 1240.66 984.457 1241.35 984.009 1241.35 984.009 1241.35 984.009 1241.35 984.009 1241.82 983.561ZM1237.03 983.561C1237.03 983.561 1237.25 984.019 1237.25 984.019 1237.25 984.019 1237.03 984.249 1237.03 984.249 1237.03 984.478 1237.03 984.478 1237.03 984.478 1237.03 984.708 1237.03 984.708 1237.03 984.708 1237.03 984.708 1237.25 985.166 1237.25 985.166 1237.47 985.396 1237.69 985.625 1237.69 985.625 1237.91 985.625 1237.91 985.625 1237.91 985.625 1237.91 985.855 1237.69 985.855 1237.69 985.855 1237.25 986.084 1237.25 985.625 1237.25 985.625 1237.25 985.396 1237.03 984.937 1237.03 984.937 1236.81 984.937 1236.81 984.937 1236.81 984.937 1236.81 984.937 1236.81 984.937 1236.37 985.625 1236.37 985.625 1236.59 985.625 1236.59 985.625 1236.59 985.625 1236.81 985.625 1236.81 985.625 1236.81 985.625 1237.03 985.625 1237.03 985.625 1237.03 985.855 1236.59 985.855 1236.59 985.855 1236.59 985.855 1236.59 985.855 1236.37 986.084 1236.37 985.855 1236.15 985.855 1236.15 985.855 1236.15 986.084 1235.93 986.313 1235.93 986.313 1235.93 986.313 1235.93 986.313 1235.71 986.543 1235.27 987.002 1234.61 987.002 1234.61 987.002 1234.61 986.772 1234.61 986.772 1234.61 986.772 1234.61 986.772 1235.27 986.772 1235.71 986.084 1236.37 985.396 1236.59 984.478 1236.59 984.478 1236.81 984.249 1236.81 984.019 1236.81 984.019 1236.81 983.561 1237.03 983.561 1237.03 983.561ZM1255.33 983.417C1255.33 983.64 1255.33 983.64 1255.33 983.64 1255.56 983.64 1255.33 983.863 1255.33 983.863 1255.33 983.863 1255.33 984.086 1255.33 984.086 1255.33 984.532 1255.33 984.755 1255.33 984.755 1255.33 984.755 1255.33 984.755 1255.79 984.532 1255.79 984.309 1256.02 983.863 1256.02 983.863 1256.02 983.64 1256.02 983.64 1256.02 983.64 1256.25 983.64 1256.48 983.64 1256.48 983.64 1256.48 983.863 1256.48 984.086 1256.48 984.086 1256.25 984.086 1256.02 984.309 1256.02 984.309 1256.02 984.532 1256.25 984.532 1256.25 984.532 1256.25 984.532 1256.02 984.532 1256.02 984.532 1255.33 984.755 1255.1 984.978 1255.1 984.978 1255.1 984.978 1255.1 984.978 1255.1 984.755 1254.87 984.755 1255.1 984.532 1255.1 984.532 1255.1 984.532 1254.87 984.532 1254.87 984.532 1255.1 984.532 1255.1 984.309 1255.1 984.309 1255.1 984.309 1255.1 983.863 1255.1 983.863 1255.1 983.64 1254.87 983.64 1254.87 983.64 1255.1 983.417 1255.33 983.417 1255.33 983.417ZM1245.82 983.417C1246.07 983.632 1246.32 983.417 1246.32 983.417 1246.82 983.632 1246.32 983.632 1246.32 983.632 1246.32 983.632 1246.32 983.632 1246.32 983.847 1246.32 983.847 1246.32 983.847 1246.07 983.847 1246.32 983.632 1246.07 983.632 1246.07 983.632 1246.07 983.632 1246.07 983.632 1245.82 983.632 1245.82 983.632 1245.82 983.417 1245.82 983.417ZM1266.3 983.376C1266.3 983.376 1266.51 983.602 1266.3 983.602 1266.3 983.602 1266.08 983.827 1266.08 984.052 1266.08 984.052 1266.08 984.052 1265.86 984.277 1265.86 984.277 1265.86 983.827 1265.86 983.827 1266.08 983.602 1265.86 983.602 1265.86 983.602 1265.86 983.602 1266.3 983.376 1266.3 983.376ZM1264.36 983.376C1264.36 983.376 1264.36 983.151 1264.57 983.376 1264.57 983.376 1264.79 983.376 1264.57 983.602 1264.57 983.602 1264.57 983.602 1264.57 984.052 1264.57 984.052 1264.57 984.277 1264.79 984.052 1264.79 984.052 1264.79 984.052 1264.79 984.277 1264.79 984.277 1264.57 984.277 1264.57 984.503 1264.57 984.503 1264.57 984.503 1264.36 984.728 1264.36 984.728 1264.14 984.953 1263.92 984.953 1263.92 984.953 1263.92 984.728 1263.92 984.728 1263.92 984.728 1264.14 984.728 1264.14 984.503 1264.14 984.503 1264.36 984.503 1264.36 984.503L1264.36 984.277 1264.36 984.052 1264.36 983.602C1264.36 983.602 1264.36 983.376 1264.36 983.376ZM1265.65 982.7C1265.65 982.7 1265.86 982.7 1265.86 982.926 1265.86 982.926 1265.86 983.151 1265.86 983.151 1265.86 983.151 1265.86 983.376 1265.65 983.376 1265.65 983.376 1265.65 983.376 1265.43 983.602 1265.43 983.602 1265.43 983.376 1265.65 983.151 1265.65 982.926 1265.65 982.7 1265.65 982.7ZM1231.68 981.577C1231.23 981.577 1230.78 981.802 1230.78 982.251 1230.78 982.251 1230.78 982.251 1230.78 987.644 1230.78 987.869 1231.23 988.318 1231.68 988.318 1231.68 988.318 1231.68 988.318 1270.39 988.318 1270.84 988.318 1271.07 987.869 1271.07 987.644 1271.07 987.644 1271.07 987.644 1271.07 982.251 1271.07 981.802 1270.84 981.577 1270.39 981.577 1270.39 981.577 1270.39 981.577 1231.68 981.577ZM1482.07 981.553 1485.66 981.553 1485.66 986.285 1482.07 986.285ZM1475.46 981.553 1479.05 981.553 1479.05 986.285 1475.46 986.285ZM1468.99 981.553 1472.58 981.553 1472.58 986.285 1468.99 986.285ZM1462.38 981.553 1465.97 981.553 1465.97 986.285 1462.38 986.285ZM1455.91 981.553 1459.51 981.553 1459.51 986.285 1455.91 986.285ZM1411.8 981.553 1415.1 981.553 1415.1 986.285 1411.8 986.285ZM1405.19 981.553 1408.63 981.553 1408.63 986.285 1405.19 986.285ZM1398.72 981.553 1402.31 981.553 1402.31 986.285 1398.72 986.285ZM1392.11 981.553 1395.84 981.553 1395.84 986.285 1392.11 986.285ZM1385.64 981.553 1389.23 981.553 1389.23 986.285 1385.64 986.285ZM1115.33 981.553 1118.93 981.553 1118.93 986.285 1115.33 986.285ZM1108.72 981.553 1112.32 981.553 1112.32 986.285 1108.72 986.285ZM1102.4 981.553 1105.85 981.553 1105.85 986.285 1102.4 986.285ZM1095.93 981.553 1099.38 981.553 1099.38 986.285 1095.93 986.285ZM1089.47 981.553 1092.77 981.553 1092.77 986.285 1089.47 986.285ZM1045.06 981.553 1048.66 981.553 1048.66 986.285 1045.06 986.285ZM1038.6 981.553 1042.19 981.553 1042.19 986.285 1038.6 986.285ZM1032.27 981.553 1035.58 981.553 1035.58 986.285 1032.27 986.285ZM1025.66 981.553 1029.11 981.553 1029.11 986.285 1025.66 986.285ZM1019.2 981.553 1022.5 981.553 1022.5 986.285 1019.2 986.285ZM1272.42 981.128C1272.64 981.577 1272.64 981.802 1272.64 982.027 1272.64 982.027 1272.64 982.027 1287.5 982.027L1289.3 982.027C1289.52 982.027 1289.75 981.802 1289.75 981.577 1289.75 981.352 1289.52 981.128 1289.3 981.128 1289.3 981.128 1289.3 981.128 1272.42 981.128ZM1213 981.128C1213 981.128 1212.78 981.352 1212.78 981.577 1212.78 981.802 1213 982.027 1213 982.027 1213 982.027 1213 982.027 1215.7 982.027 1215.7 982.027 1215.7 982.027 1229.43 982.027 1229.43 981.802 1229.66 981.577 1229.66 981.128ZM1368.11 981.123 1371.7 981.123 1371.7 985.855 1368.11 985.855ZM1132.87 981.123 1136.46 981.123 1136.46 985.855 1132.87 985.855ZM1445.13 980.263 1448.73 980.263 1448.73 984.994 1445.13 984.994ZM1435.65 980.263 1439.24 980.263 1439.24 984.994 1435.65 984.994ZM1429.04 980.263 1432.63 980.263 1432.63 984.994 1429.04 984.994ZM1420.99 980.263 1424.3 980.263 1424.3 984.994 1420.99 984.994ZM1080.13 980.263 1083.72 980.263 1083.72 984.994 1080.13 984.994ZM1072.08 980.263 1075.53 980.263 1075.53 984.994 1072.08 984.994ZM1065.61 980.263 1068.92 980.263 1068.92 984.994 1065.61 984.994ZM1055.84 980.263 1059.43 980.263 1059.43 984.994 1055.84 984.994ZM1349.43 979.116 1353.02 979.116 1353.02 983.847 1349.43 983.847ZM1341.96 979.116 1345.4 979.116 1345.4 983.847 1341.96 983.847ZM1334.34 979.116 1337.64 979.116 1337.64 983.847 1334.34 983.847ZM1326.72 979.116 1330.32 979.116 1330.32 983.847 1326.72 983.847ZM1318.96 979.116 1322.56 979.116 1322.56 983.847 1318.96 983.847ZM1311.63 979.116 1314.94 979.116 1314.94 983.847 1311.63 983.847ZM1303.87 979.116 1307.32 979.116 1307.32 983.847 1303.87 983.847ZM1296.26 979.116 1299.85 979.116 1299.85 983.847 1296.26 983.847ZM1204.72 979.116 1208.31 979.116 1208.31 983.847 1204.72 983.847ZM1197.25 979.116 1200.55 979.116 1200.55 983.847 1197.25 983.847ZM1189.63 979.116 1193.22 979.116 1193.22 983.847 1189.63 983.847ZM1181.87 979.116 1185.61 979.116 1185.61 983.847 1181.87 983.847ZM1174.25 979.116 1177.85 979.116 1177.85 983.847 1174.25 983.847ZM1166.78 979.116 1170.23 979.116 1170.23 983.847 1166.78 983.847ZM1159.16 979.116 1162.76 979.116 1162.76 983.847 1159.16 983.847ZM1151.55 979.116 1155.14 979.116 1155.14 983.847 1151.55 983.847ZM1265.67 978.881C1265.67 978.881 1265.67 978.881 1265.67 979.78 1265.67 979.78 1265.67 979.78 1276.24 979.78L1276.24 978.881C1276.24 978.881 1276.24 978.881 1265.67 978.881ZM1240.01 978.881 1240.01 979.78C1240.01 979.78 1240.01 979.78 1264.09 979.78 1264.09 979.78 1264.09 979.78 1264.09 978.881 1264.09 978.881 1264.09 978.881 1240.01 978.881ZM1227.41 978.881 1227.41 979.78C1227.41 979.78 1227.41 979.78 1238.43 979.78 1238.43 979.78 1238.43 979.78 1238.43 978.881 1238.43 978.881 1238.43 978.881 1227.41 978.881ZM1482.07 972.52 1485.66 972.52 1485.66 977.109 1482.07 977.109ZM1475.46 972.52 1479.05 972.52 1479.05 977.109 1475.46 977.109ZM1468.99 972.52 1472.58 972.52 1472.58 977.109 1468.99 977.109ZM1462.38 972.52 1465.97 972.52 1465.97 977.109 1462.38 977.109ZM1455.91 972.52 1459.51 972.52 1459.51 977.109 1455.91 977.109ZM1411.8 972.52 1415.1 972.52 1415.1 977.109 1411.8 977.109ZM1405.19 972.52 1408.63 972.52 1408.63 977.109 1405.19 977.109ZM1398.72 972.52 1402.31 972.52 1402.31 977.109 1398.72 977.109ZM1392.11 972.52 1395.84 972.52 1395.84 977.109 1392.11 977.109ZM1385.64 972.52 1389.23 972.52 1389.23 977.109 1385.64 977.109ZM1115.33 972.52 1118.93 972.52 1118.93 977.109 1115.33 977.109ZM1108.72 972.52 1112.32 972.52 1112.32 977.109 1108.72 977.109ZM1102.4 972.52 1105.85 972.52 1105.85 977.109 1102.4 977.109ZM1095.93 972.52 1099.38 972.52 1099.38 977.109 1095.93 977.109ZM1089.47 972.52 1092.77 972.52 1092.77 977.109 1089.47 977.109ZM1045.06 972.52 1048.66 972.52 1048.66 977.109 1045.06 977.109ZM1038.6 972.52 1042.19 972.52 1042.19 977.109 1038.6 977.109ZM1032.27 972.52 1035.58 972.52 1035.58 977.109 1032.27 977.109ZM1025.66 972.52 1029.11 972.52 1029.11 977.109 1025.66 977.109ZM1019.2 972.52 1022.5 972.52 1022.5 977.109 1019.2 977.109ZM1368.11 972.09 1371.7 972.09 1371.7 976.822 1368.11 976.822ZM1132.87 972.09 1136.46 972.09 1136.46 976.822 1132.87 976.822ZM1445.13 971.23 1448.73 971.23 1448.73 975.675 1445.13 975.675ZM1435.65 971.23 1439.24 971.23 1439.24 975.675 1435.65 975.675ZM1429.04 971.23 1432.63 971.23 1432.63 975.675 1429.04 975.675ZM1420.99 971.23 1424.3 971.23 1424.3 975.675 1420.99 975.675ZM1268.67 971.23 1272.26 971.23 1272.26 975.962 1268.67 975.962ZM1257.31 971.23 1260.76 971.23 1260.76 975.962 1257.31 975.962ZM1249.7 971.23 1253 971.23 1253 975.962 1249.7 975.962ZM1242.08 971.23 1245.67 971.23 1245.67 975.962 1242.08 975.962ZM1231.02 971.23 1234.32 971.23 1234.32 975.962 1231.02 975.962ZM1080.13 971.23 1083.72 971.23 1083.72 975.675 1080.13 975.675ZM1072.08 971.23 1075.53 971.23 1075.53 975.675 1072.08 975.675ZM1065.61 971.23 1068.92 971.23 1068.92 975.675 1065.61 975.675ZM1055.84 971.23 1059.43 971.23 1059.43 975.675 1055.84 975.675ZM1349.43 969.51 1353.02 969.51 1353.02 974.098 1349.43 974.098ZM1341.96 969.51 1345.4 969.51 1345.4 974.098 1341.96 974.098ZM1334.34 969.51 1337.64 969.51 1337.64 974.098 1334.34 974.098ZM1326.72 969.51 1330.32 969.51 1330.32 974.098 1326.72 974.098ZM1318.96 969.51 1322.56 969.51 1322.56 974.098 1318.96 974.098ZM1311.63 969.51 1314.94 969.51 1314.94 974.098 1311.63 974.098ZM1303.87 969.51 1307.32 969.51 1307.32 974.098 1303.87 974.098ZM1296.26 969.51 1299.85 969.51 1299.85 974.098 1296.26 974.098ZM1288.64 969.51 1292.23 969.51 1292.23 974.098 1288.64 974.098ZM1280.59 969.51 1284.19 969.51 1284.19 974.098 1280.59 974.098ZM1220.24 969.51 1223.83 969.51 1223.83 974.098 1220.24 974.098ZM1212.33 969.51 1215.93 969.51 1215.93 974.098 1212.33 974.098ZM1204.72 969.51 1208.31 969.51 1208.31 974.098 1204.72 974.098ZM1197.25 969.51 1200.55 969.51 1200.55 974.098 1197.25 974.098ZM1189.63 969.51 1193.22 969.51 1193.22 974.098 1189.63 974.098ZM1181.87 969.51 1185.61 969.51 1185.61 974.098 1181.87 974.098ZM1174.25 969.51 1177.85 969.51 1177.85 974.098 1174.25 974.098ZM1166.78 969.51 1170.23 969.51 1170.23 974.098 1166.78 974.098ZM1159.16 969.51 1162.76 969.51 1162.76 974.098 1159.16 974.098ZM1151.55 969.51 1155.14 969.51 1155.14 974.098 1151.55 974.098ZM1452.46 968.994C1452.46 970.567 1452.46 1004.05 1452.46 1005.62 1453.81 1005.62 1488.25 1005.62 1489.6 1005.62 1489.6 1004.05 1489.6 970.567 1489.6 968.994 1488.25 968.994 1453.81 968.994 1452.46 968.994ZM1383.82 968.994C1383.82 968.994 1383.82 968.994 1383.82 1005.62 1385.62 1005.62 1416.23 1005.62 1417.58 1005.62 1417.58 1004.05 1417.58 970.567 1417.58 968.994 1416.23 968.994 1385.62 968.994 1383.82 968.994ZM1376.84 968.994 1376.84 1005.62C1377.97 1005.62 1381.35 1005.62 1382.25 1005.62 1382.25 1005.62 1382.25 1005.62 1382.25 968.994 1381.35 968.994 1377.97 968.994 1376.84 968.994ZM1364.69 968.994C1364.69 968.994 1364.69 968.994 1364.69 1005.4 1364.69 1005.4 1364.92 1005.4 1364.92 1005.4 1366.04 1002.7 1367.84 1001.13 1369.87 1001.13 1371.89 1001.13 1373.69 1002.7 1375.04 1005.62L1375.04 968.994C1373.47 968.994 1366.27 968.994 1364.69 968.994ZM1129.51 968.994C1129.51 968.994 1129.51 968.994 1129.51 1005.62 1130.86 1002.7 1132.66 1001.13 1134.68 1001.13 1136.71 1001.13 1138.51 1002.7 1139.63 1005.4 1139.86 1005.4 1139.86 1005.4 1140.08 1005.4 1140.08 1005.4 1140.08 1005.4 1140.08 968.994 1138.28 968.994 1131.08 968.994 1129.51 968.994ZM1122.3 968.994C1122.3 968.994 1122.3 968.994 1122.3 1005.62 1123.43 1005.62 1126.58 1005.62 1127.93 1005.62 1127.93 1005.62 1127.93 1005.62 1127.93 968.994 1126.58 968.994 1123.43 968.994 1122.3 968.994ZM1086.97 968.994C1086.97 970.567 1086.97 1004.05 1086.97 1005.62 1088.55 1005.62 1118.93 1005.62 1120.73 1005.62 1120.73 1005.62 1120.73 1005.62 1120.73 968.994 1118.93 968.994 1088.55 968.994 1086.97 968.994ZM1014.95 968.994C1014.95 970.567 1014.95 1004.05 1014.95 1005.62 1016.53 1005.62 1050.74 1005.62 1052.31 1005.62 1052.31 1004.05 1052.31 970.567 1052.31 968.994 1050.74 968.994 1016.53 968.994 1014.95 968.994ZM1443.69 967.645C1443.69 967.645 1443.69 967.645 1443.69 1005.4 1447.51 1005.4 1450.44 1005.4 1450.66 1005.4 1450.66 1004.05 1450.66 968.994 1450.66 967.645 1450.44 967.645 1447.51 967.645 1443.69 967.645ZM1427.71 967.645C1427.71 968.994 1427.71 1004.05 1427.71 1005.4 1432.21 1005.4 1437.61 1005.4 1442.11 1005.4 1442.11 1004.05 1442.11 968.994 1442.11 967.645 1437.61 967.645 1432.21 967.645 1427.71 967.645ZM1419.16 967.645C1419.16 968.994 1419.16 1004.05 1419.16 1005.4 1419.61 1005.4 1422.31 1005.4 1426.13 1005.4 1426.13 1005.4 1426.13 1005.4 1426.13 967.645 1422.31 967.645 1419.61 967.645 1419.16 967.645ZM1078.42 967.645C1078.42 967.645 1078.42 967.645 1078.42 1005.4 1082.24 1005.4 1085.17 1005.4 1085.39 1005.4 1085.39 1004.05 1085.39 968.994 1085.39 967.645 1085.17 967.645 1082.24 967.645 1078.42 967.645ZM1062.44 967.645C1062.44 968.994 1062.44 1004.05 1062.44 1005.4 1066.94 1005.4 1072.34 1005.4 1076.84 1005.4 1076.84 1004.05 1076.84 968.994 1076.84 967.645 1072.34 967.645 1066.94 967.645 1062.44 967.645ZM1053.89 967.645C1053.89 968.994 1053.89 1004.05 1053.89 1005.4 1054.34 1005.4 1057.04 1005.4 1060.86 1005.4 1060.86 1005.4 1060.86 1005.4 1060.86 967.645 1057.04 967.645 1054.34 967.645 1053.89 967.645ZM1414.88 964.05C1414.88 964.05 1414.88 964.05 1413.08 966.073 1413.08 966.073 1413.08 966.073 1380 966.073L1380 967.421C1380 967.421 1380 967.421 1382.25 967.421 1382.25 967.421 1382.25 967.421 1383.15 967.421 1383.15 967.421 1383.15 967.421 1383.82 967.421 1383.82 967.421 1383.82 967.421 1417.58 967.421 1417.58 967.421 1417.58 967.421 1417.58 966.073 1417.58 966.073 1417.58 966.073 1426.13 966.073 1426.13 966.073 1426.13 966.073 1443.01 966.073 1443.01 966.073 1443.01 966.073 1443.69 966.073 1443.69 966.073 1443.69 966.073 1451.56 966.073 1451.56 966.073 1451.56 966.073 1452.24 966.073 1452.24 966.073 1452.24 966.073 1452.24 967.421 1452.24 967.421 1452.24 967.421 1490.27 967.421 1490.27 967.421 1490.27 967.421 1490.95 967.421 1490.95 967.421 1490.95 967.421 1490.95 966.747 1490.95 966.747 1490.95 966.747 1453.81 966.747 1453.81 966.747 1453.81 966.747 1452.24 964.05 1452.24 964.05 1452.24 964.05 1414.88 964.05ZM1052.54 964.05C1052.54 964.05 1052.54 964.05 1050.74 966.747 1050.74 966.747 1050.74 966.747 1013.83 966.747L1013.83 967.421C1013.83 967.421 1013.83 967.421 1052.31 967.421 1052.31 967.421 1052.31 967.421 1052.31 966.073 1052.31 966.073 1052.31 966.073 1060.86 966.073 1060.86 966.073 1060.86 966.073 1077.74 966.073 1077.74 966.073 1077.74 966.073 1078.42 966.073 1078.42 966.073 1078.42 966.073 1086.29 966.073 1086.29 966.073 1086.29 966.073 1086.97 966.073 1086.97 966.073 1086.97 966.073 1086.97 967.421 1086.97 967.421 1086.97 967.421 1120.73 967.421 1120.73 967.421 1120.73 967.421 1121.63 967.421 1121.63 967.421 1121.63 967.421 1122.3 967.421 1122.3 967.421 1122.3 967.421 1124.55 967.421 1124.55 967.421 1124.55 967.421 1124.55 966.073 1124.55 966.073 1124.55 966.073 1091.47 966.073 1091.47 966.073 1091.47 966.073 1089.67 964.05 1089.67 964.05 1089.67 964.05 1052.54 964.05ZM1268.67 961.194 1272.26 961.194 1272.26 965.782 1268.67 965.782ZM1257.31 961.194 1260.76 961.194 1260.76 965.782 1257.31 965.782ZM1249.7 961.194 1253 961.194 1253 965.782 1249.7 965.782ZM1242.08 961.194 1245.67 961.194 1245.67 965.782 1242.08 965.782ZM1231.02 961.194 1234.32 961.194 1234.32 965.782 1231.02 965.782ZM1349.43 960.047 1353.02 960.047 1353.02 964.778 1349.43 964.778ZM1341.96 960.047 1345.4 960.047 1345.4 964.778 1341.96 964.778ZM1334.34 960.047 1337.64 960.047 1337.64 964.778 1334.34 964.778ZM1326.72 960.047 1330.32 960.047 1330.32 964.778 1326.72 964.778ZM1318.96 960.047 1322.56 960.047 1322.56 964.778 1318.96 964.778ZM1311.63 960.047 1314.94 960.047 1314.94 964.778 1311.63 964.778ZM1303.87 960.047 1307.32 960.047 1307.32 964.778 1303.87 964.778ZM1296.26 960.047 1299.85 960.047 1299.85 964.778 1296.26 964.778ZM1288.64 960.047 1292.23 960.047 1292.23 964.778 1288.64 964.778ZM1281.17 960.047 1284.62 960.047 1284.62 964.778 1281.17 964.778ZM1219.95 960.047 1223.54 960.047 1223.54 964.778 1219.95 964.778ZM1212.33 960.047 1215.93 960.047 1215.93 964.778 1212.33 964.778ZM1204.72 960.047 1208.31 960.047 1208.31 964.778 1204.72 964.778ZM1197.25 960.047 1200.55 960.047 1200.55 964.778 1197.25 964.778ZM1189.63 960.047 1193.22 960.047 1193.22 964.778 1189.63 964.778ZM1181.87 960.047 1185.61 960.047 1185.61 964.778 1181.87 964.778ZM1174.25 960.047 1177.85 960.047 1177.85 964.778 1174.25 964.778ZM1166.78 960.047 1170.23 960.047 1170.23 964.778 1166.78 964.778ZM1159.16 960.047 1162.76 960.047 1162.76 964.778 1159.16 964.778ZM1151.55 960.047 1155.14 960.047 1155.14 964.778 1151.55 964.778ZM1268.67 951.301 1272.26 951.301 1272.26 955.745 1268.67 955.745ZM1257.31 951.301 1260.76 951.301 1260.76 955.745 1257.31 955.745ZM1249.7 951.301 1253 951.301 1253 955.745 1249.7 955.745ZM1242.08 951.301 1245.67 951.301 1245.67 955.745 1242.08 955.745ZM1231.02 951.301 1234.32 951.301 1234.32 955.745 1231.02 955.745ZM1357.04 950.792C1357.04 952.365 1357.04 1003.82 1357.04 1005.4 1358.16 1005.4 1361.77 1005.4 1362.89 1005.4 1362.89 1005.4 1362.89 1005.4 1362.89 967.421 1362.89 967.421 1362.89 967.421 1363.12 967.421 1363.12 958.657 1363.12 951.467 1363.12 950.792 1361.99 950.792 1358.16 950.792 1357.04 950.792ZM1141.43 950.792C1141.43 951.467 1141.43 958.657 1141.43 967.421 1141.43 967.421 1141.43 967.421 1141.66 967.421 1141.66 967.421 1141.66 967.421 1141.66 1005.4 1143.01 1005.4 1146.39 1005.4 1147.51 1005.4 1147.51 1003.82 1147.51 952.365 1147.51 950.792 1146.39 950.792 1142.56 950.792 1141.43 950.792ZM1349.43 950.297 1353.02 950.297 1353.02 955.028 1349.43 955.028ZM1341.96 950.297 1345.4 950.297 1345.4 955.028 1341.96 955.028ZM1334.34 950.297 1337.64 950.297 1337.64 955.028 1334.34 955.028ZM1326.72 950.297 1330.32 950.297 1330.32 955.028 1326.72 955.028ZM1318.96 950.297 1322.56 950.297 1322.56 955.028 1318.96 955.028ZM1311.63 950.297 1314.94 950.297 1314.94 955.028 1311.63 955.028ZM1303.87 950.297 1307.32 950.297 1307.32 955.028 1303.87 955.028ZM1296.26 950.297 1299.85 950.297 1299.85 955.028 1296.26 955.028ZM1288.64 950.297 1292.23 950.297 1292.23 955.028 1288.64 955.028ZM1281.17 950.297 1284.62 950.297 1284.62 955.028 1281.17 955.028ZM1219.95 950.297 1223.54 950.297 1223.54 955.028 1219.95 955.028ZM1212.33 950.297 1215.93 950.297 1215.93 955.028 1212.33 955.028ZM1204.72 950.297 1208.31 950.297 1208.31 955.028 1204.72 955.028ZM1197.25 950.297 1200.55 950.297 1200.55 955.028 1197.25 955.028ZM1189.63 950.297 1193.22 950.297 1193.22 955.028 1189.63 955.028ZM1181.87 950.297 1185.61 950.297 1185.61 955.028 1181.87 955.028ZM1174.25 950.297 1177.85 950.297 1177.85 955.028 1174.25 955.028ZM1166.78 950.297 1170.23 950.297 1170.23 955.028 1166.78 955.028ZM1159.16 950.297 1162.76 950.297 1162.76 955.028 1159.16 955.028ZM1151.55 950.297 1155.14 950.297 1155.14 955.028 1151.55 955.028ZM1357.04 947.871C1357.04 948.545 1357.04 948.77 1357.04 949.22 1358.16 949.22 1361.99 949.22 1363.12 949.22 1363.12 948.77 1363.12 948.545 1363.12 947.871 1361.99 947.871 1358.16 947.871 1357.04 947.871ZM1149.09 947.871C1149.09 947.871 1149.09 947.871 1149.09 949.444 1149.09 949.444 1149.09 949.444 1149.09 950.792 1149.09 950.792 1149.09 950.792 1149.09 1005.4 1149.09 1005.4 1149.09 1005.4 1210.75 1005.4 1210.75 1005.4 1210.75 1005.4 1211.43 1005.4 1211.43 1005.4 1211.43 1005.4 1211.43 1007.19 1211.43 1007.19 1211.43 1007.19 1213.68 1007.19 1213.68 1007.19 1213.68 1007.19 1213.68 993.262 1213.68 993.262 1213.68 993.262 1212.55 993.262 1212.55 993.262 1212.55 993.262 1212.55 989.442 1212.33 988.993 1212.1 988.543 1212.1 987.869 1212.1 986.97 1212.55 986.071 1213.45 985.847 1213.23 985.397 1213 984.948 1213 984.723 1213 984.049 1213.23 983.824 1213.45 983.6 1213.45 983.6 1213.45 983.6 1213 983.6 1212.1 983.6 1211.2 982.476 1211.2 981.577 1211.2 980.678 1212.1 979.78 1213 979.78 1213 979.78 1213 979.78 1225.83 979.78 1225.83 979.78 1225.83 979.78 1225.83 947.871 1225.83 947.871 1225.83 947.871 1149.09 947.871ZM1141.43 947.871C1141.43 948.545 1141.43 948.77 1141.43 949.22 1142.56 949.22 1146.39 949.22 1147.51 949.22 1147.51 948.77 1147.51 948.545 1147.51 947.871 1146.39 947.871 1142.56 947.871 1141.43 947.871ZM1277.82 945.4 1277.82 979.78C1277.82 979.78 1277.82 979.78 1289.3 979.78 1290.42 979.78 1291.32 980.678 1291.32 981.577 1291.32 982.476 1290.65 983.15 1289.75 983.375 1290.2 983.6 1290.2 984.049 1290.2 984.723 1290.2 985.172 1289.97 985.847 1289.52 986.296 1289.97 986.745 1290.2 987.195 1290.2 987.869 1290.2 988.094 1290.2 988.543 1290.2 988.768 1290.2 988.768 1290.2 988.768 1290.42 988.768 1290.42 988.768 1290.42 988.768 1290.42 993.262 1290.42 993.262 1290.42 993.262 1289.3 993.262 1289.3 993.262 1289.3 993.262 1289.3 1007.19 1289.3 1007.19 1289.3 1007.19 1291.1 1007.19 1291.1 1007.19 1291.1 1007.19 1291.1 1005.4 1291.1 1005.4 1291.1 1005.4 1291.77 1005.4 1291.77 1005.4 1291.77 1005.4 1355.46 1005.4 1355.46 1005.4 1355.46 1005.4 1355.46 950.792 1355.46 950.792 1355.46 950.792 1355.46 949.444 1355.46 949.444 1355.46 949.444 1355.46 947.871 1355.46 947.871 1355.46 947.871 1278.49 947.871 1278.49 947.871 1278.49 947.871 1278.49 946.523 1278.49 946.523 1278.49 946.523 1355.46 946.523 1355.46 946.523 1355.46 946.523 1356.81 946.523 1356.81 946.523 1356.81 946.523 1360.64 946.523 1360.64 946.523 1360.64 946.523 1361.09 945.4 1361.09 945.4 1361.09 945.4 1277.82 945.4ZM1141.66 945.4C1141.66 945.4 1141.66 945.4 1143.01 946.523 1143.01 946.523 1143.01 946.523 1147.74 946.523 1147.74 946.523 1147.74 946.523 1148.19 946.523 1148.19 946.523 1148.19 946.523 1149.09 946.523 1149.09 946.523 1149.09 946.523 1225.83 946.523 1225.83 946.523 1225.83 946.523 1225.83 945.4ZM1268.67 941.121 1272.26 941.121 1272.26 945.852 1268.67 945.852ZM1257.31 941.121 1260.76 941.121 1260.76 945.852 1257.31 945.852ZM1249.7 941.121 1253 941.121 1253 945.852 1249.7 945.852ZM1242.08 941.121 1245.67 941.121 1245.67 945.852 1242.08 945.852ZM1231.02 941.121 1234.32 941.121 1234.32 945.852 1231.02 945.852ZM1231.02 931.086 1234.32 931.086 1234.32 935.817 1231.02 935.817ZM1242.08 931.086 1245.67 931.086 1245.67 935.817 1242.08 935.817ZM1249.7 931.086 1253 931.086 1253 935.817 1249.7 935.817ZM1257.31 931.086 1260.76 931.086 1260.76 935.817 1257.31 935.817ZM1268.67 931.085 1272.26 931.085 1272.26 935.817 1268.67 935.817ZM1265.67 929.447C1265.67 929.447 1265.67 929.447 1265.67 977.308 1265.67 977.308 1265.67 977.308 1276.24 977.308 1276.24 977.308 1276.24 977.308 1276.24 929.447ZM1240.01 929.447C1240.01 929.447 1240.01 929.447 1240.01 977.308 1240.01 977.308 1240.01 977.308 1264.09 977.308 1264.09 977.308 1264.09 977.308 1264.09 929.447ZM1227.41 929.447 1227.41 977.308C1227.41 977.308 1227.41 977.308 1238.43 977.308 1238.43 977.308 1238.43 977.308 1238.43 929.447 1238.43 929.447 1238.43 929.447 1227.41 929.447ZM1269.27 921.358C1269.27 921.807 1269.27 922.032 1269.27 922.482L1274.44 922.482C1274.44 922.032 1274.44 921.807 1274.44 921.358 1273.32 921.358 1270.39 921.358 1269.27 921.358ZM1229.43 921.358C1229.43 921.807 1229.43 922.032 1229.43 922.482 1229.43 922.482 1229.43 922.482 1234.38 922.482 1234.38 922.032 1234.38 921.807 1234.38 921.358 1233.26 921.358 1230.33 921.358 1229.43 921.358ZM1267.47 918.212C1267.47 918.886 1267.47 919.111 1267.47 919.56 1268.82 919.56 1274.89 919.56 1276.02 919.56 1276.02 919.111 1276.02 918.886 1276.02 918.212 1274.89 918.212 1268.82 918.212 1267.47 918.212ZM1227.63 918.212C1227.63 918.886 1227.63 919.111 1227.63 919.56 1228.76 919.56 1235.06 919.56 1236.18 919.56 1236.18 919.111 1236.18 918.886 1236.18 918.212 1235.06 918.212 1228.76 918.212 1227.63 918.212ZM1243.23 916.604 1246.82 916.604 1246.82 921.336 1243.23 921.336ZM1257.31 916.604 1260.76 916.604 1260.76 921.336 1257.31 921.336ZM1250.42 916.604 1253.72 916.604 1253.72 921.336 1250.42 921.336ZM1243.23 909.722 1246.82 909.722 1246.82 914.454 1243.23 914.454ZM1257.31 909.722 1260.76 909.722 1260.76 914.454 1257.31 914.454ZM1250.42 909.722 1253.72 909.722 1253.72 914.454 1250.42 914.454ZM1263.64 907.875C1263.64 907.875 1263.64 907.875 1263.64 922.482 1263.64 922.482 1263.64 922.482 1267.92 922.482 1267.92 922.482 1267.92 922.482 1267.92 921.133L1266.12 921.133C1266.12 921.133 1266.12 921.133 1266.12 916.639 1266.12 916.639 1266.12 916.639 1269.04 916.639 1269.04 916.639 1269.04 916.639 1269.04 907.875 1269.04 907.875 1269.04 907.875 1263.64 907.875ZM1241.58 907.875C1241.58 907.875 1241.58 907.875 1241.58 922.482L1262.06 922.482C1262.06 922.482 1262.06 922.482 1262.06 907.875 1262.06 907.875 1262.06 907.875 1241.58 907.875ZM1234.38 907.875C1234.38 907.875 1234.38 907.875 1234.38 916.639 1234.38 916.639 1234.38 916.639 1236.86 916.639L1237.76 916.639C1237.76 916.639 1237.76 916.639 1237.76 921.133 1237.76 921.133 1237.76 921.133 1235.96 921.133 1235.96 921.133 1235.96 921.133 1235.96 922.482 1235.96 922.482 1235.96 922.482 1240.23 922.482 1240.23 922.482 1240.23 922.482 1240.23 907.875 1240.23 907.875 1240.23 907.875 1234.38 907.875ZM1232.36 906.078C1232.36 906.078 1232.36 906.303 1232.36 906.527L1271.29 906.527C1271.29 906.303 1271.29 906.078 1271.29 906.078 1271.29 906.078 1271.29 906.078 1232.36 906.078ZM1232.36 904.056C1232.36 904.28 1232.36 904.28 1232.36 904.28 1232.36 904.28 1232.36 904.28 1271.29 904.28 1271.29 904.28 1271.29 904.28 1271.29 904.056 1271.29 904.056 1271.29 904.056 1232.58 904.056 1232.58 904.056 1232.58 904.056 1232.36 904.056ZM1235.28 900.91C1235.06 901.135 1234.61 901.584 1233.93 902.483 1233.93 902.483 1233.93 902.483 1269.94 902.483 1269.27 901.584 1268.59 901.135 1268.59 900.91 1268.59 900.91 1268.59 900.91 1235.28 900.91ZM1267.47 897.988C1267.47 898.213 1267.47 898.213 1267.24 898.213L1267.27 898.213 1267.47 898.016ZM1264.77 894.842C1263.64 894.842 1262.97 895.516 1262.97 896.64 1262.97 897.539 1263.64 898.213 1264.32 898.213 1264.32 898.213 1264.32 898.213 1264.77 898.213 1265.67 898.213 1266.34 897.539 1266.34 896.64 1266.34 896.64 1266.34 896.64 1266.34 896.415 1266.34 895.516 1265.44 894.842 1264.77 894.842ZM1238.88 894.842C1237.98 894.842 1237.08 895.516 1237.08 896.64 1237.08 897.539 1237.76 898.213 1238.66 898.213 1238.66 898.213 1238.66 898.213 1239.11 898.213 1239.78 898.213 1240.23 897.764 1240.46 897.089 1240.46 897.089 1240.46 897.089 1240.46 895.966 1240.23 895.292 1239.56 894.842 1238.88 894.842ZM1256.45 892.23 1259.76 892.23 1259.76 896.818 1256.45 896.818ZM1250.13 892.23 1253.58 892.23 1253.58 896.818 1250.13 896.818ZM1243.81 892.23 1247.25 892.23 1247.25 896.818 1243.81 896.818ZM1256.45 884.058 1259.76 884.058 1259.76 888.789 1256.45 888.789ZM1250.13 884.058 1253.58 884.058 1253.58 888.789 1250.13 888.789ZM1243.81 884.058 1247.25 884.058 1247.25 888.789 1243.81 888.789ZM1242.03 882.034C1242.03 882.034 1242.03 882.034 1242.03 895.966 1242.03 896.191 1242.03 896.415 1242.03 896.415 1242.03 896.415 1242.03 896.415 1242.03 896.64 1242.03 896.865 1242.03 897.089 1242.03 897.089 1242.03 897.089 1242.03 897.089 1242.03 898.213 1242.03 898.213 1242.03 898.213 1261.39 898.213 1261.39 898.213 1261.39 898.213 1261.39 882.034 1261.39 882.034 1261.39 882.034 1242.03 882.034ZM1239.78 880.012C1239.78 880.237 1239.78 880.237 1239.78 880.686 1241.13 880.686 1261.84 880.686 1263.42 880.686 1263.42 880.237 1263.42 880.237 1263.42 880.012 1263.42 880.012 1263.42 880.012 1239.78 880.012ZM1239.78 877.765C1239.78 877.99 1239.78 877.99 1239.78 878.214 1239.78 878.214 1239.78 878.214 1263.42 878.214 1263.42 877.99 1263.42 877.99 1263.42 877.765 1263.42 877.765 1263.42 877.765 1239.78 877.765ZM1239.78 875.518C1239.78 875.743 1239.78 875.743 1239.78 875.967 1239.78 875.967 1239.78 875.967 1263.42 875.967 1263.42 875.743 1263.42 875.743 1263.42 875.518 1263.19 875.518 1262.52 875.518 1261.84 875.518 1261.84 875.518 1261.61 875.518 1261.39 875.518 1261.16 875.518 1261.16 875.518 1260.94 875.518 1260.49 875.518 1260.04 875.518 1259.36 875.518 1259.14 875.518 1259.14 875.518 1258.91 875.518 1258.69 875.518 1258.69 875.518 1258.46 875.518 1258.01 875.518 1257.34 875.518 1256.89 875.518 1256.66 875.518 1256.44 875.518 1256.44 875.518 1256.21 875.518 1255.99 875.518 1255.99 875.518 1255.31 875.518 1254.86 875.518 1254.41 875.518 1254.19 875.518 1253.96 875.518 1253.96 875.518 1253.74 875.518 1253.51 875.518 1253.51 875.518 1252.84 875.518 1252.39 875.518 1251.71 875.518 1251.71 875.518 1251.49 875.518 1251.26 875.518 1251.26 875.518 1251.04 875.518 1250.81 875.518 1250.36 875.518 1249.91 875.518 1249.24 875.518 1249.24 875.518 1249.01 875.518 1248.79 875.518 1248.56 875.518 1248.56 875.518 1248.34 875.518 1247.89 875.518 1247.21 875.518 1246.76 875.518 1246.54 875.518 1246.54 875.518 1246.31 875.518 1246.09 875.518 1246.09 875.518 1245.86 875.518 1245.19 875.518 1244.74 875.518 1244.29 875.518 1244.06 875.518 1243.84 875.518 1243.84 875.518 1243.61 875.518 1243.39 875.518 1243.39 875.518 1242.71 875.518 1242.26 875.518 1241.81 875.518 1241.58 875.518 1241.36 875.518 1241.36 875.518 1241.13 875.518 1240.91 875.518 1240.91 875.518 1240.23 875.518 1240.01 875.518 1239.78 875.518ZM1253.51 870.35C1253.51 870.35 1253.29 870.35 1253.29 870.575L1253.29 873.496C1253.29 873.72 1253.51 873.72 1253.74 873.945 1253.74 873.945 1253.74 873.945 1254.19 873.945 1254.19 873.72 1254.41 873.72 1254.41 873.496 1254.41 873.496 1254.41 873.496 1254.41 870.575 1254.41 870.35 1254.19 870.35 1254.19 870.35 1254.19 870.35 1253.96 870.35 1253.96 870.35 1253.96 870.35 1253.96 870.35 1253.51 870.35ZM1251.04 870.35C1250.81 870.35 1250.81 870.35 1250.81 870.575 1250.81 870.575 1250.81 870.575 1250.81 873.496 1250.81 873.72 1251.04 873.72 1251.04 873.945 1251.04 873.945 1251.04 873.945 1251.71 873.945 1251.71 873.72 1251.94 873.72 1251.94 873.496 1251.94 873.496 1251.94 873.496 1251.94 870.575 1251.94 870.35 1251.71 870.35 1251.71 870.35 1251.71 870.35 1251.71 870.35 1251.04 870.35ZM1261.39 870.125C1261.16 870.125 1260.94 870.35 1260.94 870.575L1260.94 873.496C1260.94 873.72 1261.16 873.72 1261.16 873.945 1261.16 873.945 1261.16 873.945 1261.61 873.945 1261.84 873.72 1261.84 873.72 1261.84 873.496 1261.84 873.496 1261.84 873.496 1261.84 870.575 1261.84 870.35 1261.61 870.125 1261.39 870.125ZM1258.91 870.125C1258.69 870.125 1258.46 870.35 1258.46 870.575L1258.46 873.496C1258.46 873.72 1258.46 873.72 1258.69 873.945 1258.69 873.945 1258.69 873.945 1259.14 873.945 1259.36 873.72 1259.36 873.72 1259.36 873.496 1259.36 873.496 1259.36 873.496 1259.36 870.575 1259.36 870.35 1259.14 870.125 1258.91 870.125ZM1256.44 870.125C1255.99 870.125 1255.99 870.35 1255.99 870.575L1255.99 873.496C1255.99 873.72 1255.99 873.72 1256.21 873.945 1256.21 873.945 1256.21 873.945 1256.66 873.945 1256.66 873.72 1256.89 873.72 1256.89 873.496 1256.89 873.496 1256.89 873.496 1256.89 870.575 1256.89 870.35 1256.66 870.125 1256.44 870.125ZM1248.79 870.125C1248.56 870.125 1248.34 870.35 1248.34 870.575 1248.34 870.575 1248.34 870.575 1248.34 873.496 1248.34 873.72 1248.34 873.72 1248.56 873.945 1248.56 873.945 1248.56 873.945 1249.01 873.945 1249.24 873.72 1249.24 873.72 1249.24 873.496 1249.24 873.496 1249.24 873.496 1249.24 870.575 1249.24 870.35 1249.01 870.125 1248.79 870.125ZM1246.31 870.125C1246.09 870.125 1245.86 870.35 1245.86 870.575L1245.86 873.496C1245.86 873.72 1245.86 873.72 1246.09 873.945 1246.09 873.945 1246.09 873.945 1246.54 873.945 1246.76 873.72 1246.76 873.72 1246.76 873.496 1246.76 873.496 1246.76 873.496 1246.76 870.575 1246.76 870.35 1246.54 870.125 1246.31 870.125ZM1243.84 870.125C1243.61 870.125 1243.39 870.35 1243.39 870.575L1243.39 873.496C1243.39 873.72 1243.39 873.72 1243.61 873.945 1243.61 873.945 1243.61 873.945 1244.06 873.945 1244.06 873.72 1244.29 873.72 1244.29 873.496 1244.29 873.496 1244.29 873.496 1244.29 870.575 1244.29 870.35 1244.06 870.125 1243.84 870.125ZM1241.36 870.125C1240.91 870.125 1240.68 870.35 1240.68 870.575L1240.68 873.496C1240.68 873.72 1240.91 873.72 1241.13 873.945 1241.13 873.945 1241.13 873.945 1241.58 873.945 1241.58 873.72 1241.81 873.72 1241.81 873.496 1241.81 873.496 1241.81 873.496 1241.81 870.575 1241.81 870.35 1241.58 870.125 1241.36 870.125ZM1254.86 867.653C1254.64 867.878 1254.41 868.328 1254.19 868.777 1255.09 868.552 1255.76 868.103 1256.21 867.653 1256.21 867.653 1256.21 867.653 1254.86 867.653ZM1250.81 867.653C1251.26 868.103 1251.71 868.552 1251.94 868.552 1252.39 868.552 1252.84 868.103 1253.06 867.653 1253.06 867.653 1253.06 867.653 1250.81 867.653ZM1247.66 867.653C1248.11 868.103 1248.79 868.777 1249.91 868.777 1249.46 868.328 1249.46 867.878 1249.24 867.653 1249.24 867.653 1249.24 867.653 1247.66 867.653ZM1254.41 862.709C1254.86 863.608 1255.09 864.507 1255.09 865.631 1255.09 865.856 1255.09 865.856 1255.09 866.08 1255.09 866.08 1255.09 866.08 1256.89 866.08 1256.89 865.856 1256.89 865.856 1256.89 865.856 1256.89 864.282 1255.76 863.159 1254.41 862.709ZM1251.71 862.709C1251.26 862.934 1250.59 864.058 1250.59 865.631 1250.59 865.856 1250.59 865.856 1250.59 866.08L1253.51 866.08C1253.51 865.856 1253.51 865.856 1253.51 865.631 1253.51 864.058 1252.84 862.934 1252.16 862.709 1252.16 862.709 1252.16 862.709 1251.71 862.709ZM1249.69 862.709C1248.11 862.934 1246.99 864.058 1246.99 865.856 1246.99 865.856 1246.99 865.856 1246.99 866.08 1246.99 866.08 1246.99 866.08 1249.01 866.08 1249.01 865.856 1249.01 865.856 1249.01 865.631 1249.01 864.507 1249.24 863.608 1249.69 862.709ZM1248.34 860.463C1248.11 860.463 1247.89 860.687 1247.89 860.912 1247.89 861.137 1248.11 861.137 1248.34 861.137 1248.34 861.137 1248.34 861.137 1249.46 861.137 1249.69 861.137 1249.91 861.137 1249.91 861.137 1249.91 861.137 1249.91 861.137 1251.71 861.137 1251.94 861.137 1251.94 861.137 1251.94 861.137 1252.16 861.137 1252.16 861.137 1252.16 861.137 1252.16 861.137 1252.16 861.137 1253.96 861.137 1254.19 861.137 1254.19 861.137 1254.41 861.137 1254.41 861.137 1254.41 861.137 1255.54 861.137 1255.54 861.137 1255.76 861.137 1255.76 860.912 1255.76 860.687 1255.54 860.463 1255.54 860.463 1255.54 860.463 1255.54 860.463 1248.34 860.463ZM1251.94 841.138C1251.49 848.553 1251.04 856.867 1250.81 858.89 1250.81 858.89 1250.81 858.89 1253.06 858.89 1253.06 857.092 1252.39 848.778 1251.94 841.138ZM1251.94 823.836C1250.81 823.836 1249.91 824.734 1249.91 826.307 1249.91 827.431 1250.81 828.554 1251.94 828.554 1252.84 828.554 1253.74 827.431 1253.74 826.307 1253.74 824.734 1252.84 823.836 1251.94 823.836ZM1251.94 822.262C1253.74 822.262 1255.31 824.06 1255.31 826.307 1255.31 827.88 1254.19 829.453 1252.61 829.902 1252.61 829.902 1252.61 829.902 1254.64 858.89 1254.64 858.89 1254.64 858.89 1255.54 858.89 1256.44 858.89 1257.34 859.788 1257.34 860.912 1257.34 861.361 1257.11 861.811 1256.66 862.26 1257.79 863.159 1258.46 864.282 1258.46 865.856 1258.46 866.979 1258.01 867.878 1257.34 868.777 1257.34 868.777 1257.56 869.002 1257.56 869.002 1258.01 868.777 1258.46 868.552 1258.91 868.552 1259.36 868.552 1259.81 868.777 1260.26 869.002 1260.49 868.777 1260.94 868.552 1261.39 868.552 1262.52 868.552 1263.42 869.451 1263.42 870.575 1263.42 870.575 1263.42 870.575 1263.42 873.496 1263.42 873.72 1263.42 873.72 1263.42 873.945 1263.42 873.945 1263.42 873.945 1264.09 873.945 1264.09 873.945 1264.09 873.945 1264.77 873.945 1264.77 873.945 1264.77 873.945 1264.77 875.967 1264.77 875.967 1264.77 875.967 1264.77 877.765 1264.77 877.765 1264.77 877.765 1264.77 878.214 1264.77 878.214 1264.77 878.214 1264.77 880.012 1264.77 880.012 1264.77 880.012 1264.77 882.034 1264.77 882.034 1264.77 882.034 1262.97 882.034 1262.97 882.034 1262.97 882.034 1262.97 893.719 1263.42 893.494 1264.09 893.269 1264.77 893.269 1265.89 893.269 1266.79 893.943 1267.47 895.067 1267.47 895.067 1267.47 895.067 1267.47 893.494 1267.47 893.494 1267.47 893.494 1271.07 893.494 1271.07 893.494 1271.07 893.494 1271.07 898.213 1271.07 898.213 1271.07 898.213 1272.19 898.213 1272.19 898.213 1272.19 898.213 1272.19 900.91 1272.19 900.91 1272.19 900.91 1270.62 900.91 1270.62 900.91 1270.62 900.91 1271.97 902.483 1271.97 902.483 1271.97 902.483 1272.19 902.483 1272.19 902.483 1272.19 902.483 1272.19 902.708 1272.19 902.708 1272.19 902.708 1272.87 903.606 1272.87 903.606 1272.87 903.606 1272.87 908.1 1272.87 908.1 1272.87 908.1 1271.29 908.1 1271.29 908.1 1271.29 907.875 1271.29 907.875 1271.29 907.875 1271.29 907.875 1270.39 907.875 1270.39 907.875 1270.39 907.875 1270.39 916.639 1270.39 916.639 1270.39 916.639 1276.92 916.639 1276.92 916.639 1276.92 916.639 1277.59 916.639 1277.59 916.639 1277.59 916.639 1277.59 921.133 1277.59 921.133 1277.59 921.133 1275.79 921.133 1275.79 921.133 1275.79 921.133 1275.79 922.482 1275.79 922.482 1275.79 922.482 1279.62 922.482 1279.62 922.482 1279.62 922.482 1279.62 924.279 1279.62 924.279 1279.62 924.279 1277.82 929.447 1277.82 929.447 1277.82 929.447 1277.82 938.211 1277.82 938.211 1277.82 938.211 1341.96 938.211 1341.96 938.211 1341.96 938.211 1364.92 943.377 1364.92 943.377 1364.92 943.377 1364.92 944.95 1364.92 944.95 1364.92 944.95 1364.92 945.4 1364.92 945.4 1364.92 945.4 1364.69 946.748 1364.69 946.748 1364.69 946.748 1364.69 949.444 1364.69 949.444 1364.69 949.444 1364.69 950.792 1364.69 950.792 1364.69 950.792 1364.69 967.421 1364.69 967.421 1364.69 967.421 1374.82 967.421 1374.82 967.421 1374.82 967.421 1374.14 966.971 1374.14 966.971 1374.14 966.971 1374.14 963.825 1374.14 963.825 1374.14 963.825 1376.84 963.825 1376.84 963.825 1376.84 963.825 1388.55 960.904 1388.55 960.904 1388.55 960.904 1419.38 960.904 1419.38 960.904 1419.38 960.904 1433.11 953.714 1433.11 953.714 1433.11 953.714 1448.86 960.904 1448.86 960.904 1448.86 960.904 1481.5 960.904 1481.5 960.904 1481.5 960.904 1489.6 964.5 1489.6 964.5 1489.6 964.5 1492.97 964.5 1492.97 964.5 1492.97 964.5 1492.97 968.544 1492.97 968.544 1492.97 968.544 1491.62 970.117 1491.62 970.117 1491.62 970.117 1491.17 970.117 1491.17 970.117 1491.17 970.117 1491.17 1005.62 1491.17 1005.62 1491.17 1005.62 1493.87 1005.62 1493.87 1005.62 1493.87 1005.62 1494.55 1005.62 1494.55 1005.62 1494.55 1005.62 1494.55 1009.44L1495 1009.44C1495 1009.44 1495 1009.44 1494.55 1010.34 1494.55 1010.34 1494.55 1010.34 1494.55 1010.79 1494.55 1010.79 1494.55 1010.79 1494.32 1010.79 1494.32 1010.79 1494.32 1010.79 1492.3 1014.61 1492.3 1014.61 1492.3 1014.61 1375.49 1014.61 1375.49 1014.61 1375.49 1014.61 1373.92 1010.79 1373.92 1010.79 1373.92 1010.79 1373.92 1010.34 1373.92 1010.34 1373.92 1010.34 1373.47 1009.44 1373.47 1009.44 1373.47 1009.44 1373.92 1009.44 1373.92 1009.44 1373.92 1009.44 1373.92 1006.29 1372.79 1004.05 1371.44 1002.7 1369.87 1002.7 1368.29 1002.7 1366.94 1004.05 1366.04 1006.29 1366.04 1006.29 1366.04 1006.29 1366.04 1010.34 1366.04 1010.34 1366.04 1010.34 1363.12 1014.83 1363.12 1014.83 1363.12 1014.83 1326.66 1014.83 1326.66 1014.83 1326.66 1014.83 1326.66 1019.1 1326.66 1019.1 1326.66 1019.1 1320.58 1019.1 1320.58 1019.1 1320.58 1019.1 1320.58 1019.33 1320.58 1019.33 1320.58 1019.33 1315.63 1013.26 1315.63 1013.26 1315.63 1013.26 1303.03 1013.26 1303.03 1013.26 1303.03 1013.26 1306.63 1020.9 1306.63 1020.9 1306.63 1020.9 1305.73 1020.9 1305.73 1020.9 1304.15 1021.13 1304.15 1021.13 1304.15 1021.13 1304.15 1021.13 1299.2 1021.13 1299.2 1021.13 1299.2 1021.13 1203.55 1021.13 1203.55 1021.13 1203.55 1021.13 1199.5 1021.13 1199.5 1021.13 1199.5 1021.13 1197.02 1020.9 1197.02 1020.9 1197.02 1020.9 1197.47 1020 1197.47 1020 1197.47 1020 1200.85 1013.26 1200.85 1013.26 1200.85 1013.26 1188.92 1013.26 1188.92 1013.26 1188.92 1013.26 1183.97 1019.33 1183.97 1019.33 1183.97 1019.33 1183.97 1019.1 1183.97 1019.1 1183.97 1019.1 1177.89 1019.1 1177.89 1019.1 1177.89 1019.1 1177.89 1014.83 1177.89 1014.83 1177.89 1014.83 1140.76 1014.83 1140.53 1014.83 1140.31 1014.61 1140.08 1014.16 1140.08 1014.16 1139.18 1011.91 1138.73 1010.56 1138.73 1010.56 1138.73 1010.56 1138.73 1010.34 1138.51 1010.11 1138.51 1009.89 1138.51 1009.89 1138.51 1009.89 1138.51 1009.89 1138.51 1006.29 1137.61 1004.05 1136.26 1002.7 1134.68 1002.7 1133.11 1002.7 1131.76 1004.05 1130.86 1006.29 1130.86 1006.29 1130.86 1006.29 1130.86 1009.89 1130.86 1010.11 1130.86 1010.34 1130.86 1010.34 1130.86 1010.34 1130.86 1010.34 1130.86 1010.79 1130.86 1010.79 1130.86 1010.79 1130.63 1010.79 1130.63 1010.79 1130.63 1010.79 1129.28 1014.16 1129.28 1014.38 1128.83 1014.61 1128.61 1014.61 1128.61 1014.61 1128.61 1014.61 1012.7 1014.61 1012.48 1014.61 1012.25 1014.38 1012.03 1014.16 1012.03 1014.16 1012.03 1014.16 1010.22 1010.79 1010.22 1010.79 1010.22 1010.79 1010 1010.79 1010 1010.79 1010 1010.79 1010 1005.62 1010 1005.62 1010 1005.62 1013.38 1005.62 1013.38 1005.62 1013.38 1005.62 1013.38 970.117 1013.38 970.117 1013.38 970.117 1013.15 970.117 1013.15 970.117 1013.15 970.117 1011.58 968.544 1011.58 968.544 1011.58 968.544 1011.58 964.5 1011.58 964.5 1011.58 964.5 1014.95 964.5 1014.95 964.5 1014.95 964.5 1023.05 960.904 1023.05 960.904 1023.05 960.904 1055.69 960.904 1055.69 960.904 1055.69 960.904 1071.44 953.714 1071.44 953.714 1071.44 953.714 1085.39 960.904 1085.39 960.904 1085.39 960.904 1116 960.904 1116 960.904 1116 960.904 1127.71 963.825 1127.71 963.825 1127.71 963.825 1130.41 963.825 1130.41 963.825 1130.41 963.825 1130.41 966.971 1130.41 966.971 1130.41 966.971 1129.73 967.421 1129.73 967.421 1129.73 967.421 1140.08 967.421 1140.08 967.421 1140.08 967.421 1140.08 950.792 1140.08 950.792 1140.08 950.792 1140.08 949.444 1140.08 949.444 1140.08 949.444 1140.08 946.748 1140.08 946.748 1140.08 946.748 1137.38 945.4 1137.38 945.4 1137.38 945.4 1137.38 943.377 1137.38 943.377 1137.38 943.377 1160.34 938.211 1160.34 938.211 1160.34 938.211 1225.83 938.211 1225.83 938.211 1225.83 938.211 1225.83 929.223 1225.83 929.223 1225.83 929.223 1223.58 924.279 1223.58 924.279 1223.58 924.279 1223.58 922.482 1223.58 922.482 1223.58 922.482 1227.86 922.482 1227.86 922.482 1227.86 922.482 1227.86 921.133 1227.86 921.133 1227.86 921.133 1226.06 921.133 1226.06 921.133 1226.06 921.133 1226.06 916.639 1226.06 916.639 1226.06 916.639 1232.81 916.639 1232.81 916.639 1232.81 916.639 1232.81 907.875 1232.81 907.875 1232.81 907.875 1232.36 907.875 1232.36 907.875 1232.36 908.1 1232.36 908.1 1232.36 908.1 1232.36 908.1 1231.01 908.1 1231.01 908.1 1231.01 908.1 1231.01 903.606 1231.01 903.606 1231.01 903.606 1231.01 903.382 1231.01 903.382 1231.01 903.382 1231.91 902.483 1231.91 902.483 1231.91 902.483 1233.26 900.91 1233.26 900.91 1233.26 900.91 1231.46 900.91 1231.46 900.91 1231.46 900.91 1231.46 898.213 1231.46 898.213 1231.46 898.213 1232.81 898.213 1232.81 898.213 1232.81 898.213 1232.81 893.719 1232.81 893.719 1232.81 893.719 1236.41 893.719 1236.41 893.719 1236.41 893.719 1236.41 894.617 1237.08 893.719 1237.76 893.269 1238.88 893.269 1239.33 893.269 1240.01 893.494 1240.46 893.719 1240.46 893.719 1240.46 893.719 1240.46 882.034 1240.46 882.034 1240.46 882.034 1238.21 882.034 1238.21 882.034 1238.21 882.034 1238.21 880.012 1238.21 880.012 1238.21 880.012 1238.21 878.214 1238.21 878.214 1238.21 878.214 1238.21 877.765 1238.21 877.765 1238.21 877.765 1238.21 875.967 1238.21 875.967 1238.21 875.967 1238.21 873.945 1238.21 873.945 1238.21 873.945 1239.33 873.945 1239.33 873.72 1239.33 873.72 1239.33 873.496 1239.33 873.496 1239.33 873.496 1239.33 870.575 1239.33 869.451 1240.23 868.552 1241.36 868.552 1241.81 868.552 1242.26 868.777 1242.48 869.002 1242.94 868.777 1243.39 868.552 1243.84 868.552 1244.29 868.552 1244.74 868.777 1244.96 869.002 1245.41 868.777 1245.86 868.552 1246.31 868.552 1246.31 868.552 1246.54 868.777 1246.54 868.777 1245.86 867.878 1245.41 866.754 1245.41 865.856 1245.41 864.282 1246.09 863.159 1247.21 862.26 1246.76 861.811 1246.54 861.361 1246.54 860.912 1246.54 859.788 1247.21 858.89 1248.34 858.89 1248.34 858.89 1248.34 858.89 1249.24 858.89 1249.24 858.89 1249.24 858.89 1251.04 829.902 1249.46 829.453 1248.56 827.88 1248.56 826.307 1248.56 824.06 1249.91 822.262 1251.94 822.262ZM1252.21 800.898C1330.77 800.898 1394.69 864.711 1394.69 943.353 1394.69 947.397 1394.47 951.217 1394.02 955.262L1382.99 948.97C1382.99 947.173 1383.22 945.151 1383.22 943.353 1383.22 871.227 1324.47 812.357 1252.21 812.357 1179.96 812.357 1121.21 871.227 1121.21 943.353 1121.21 944.926 1121.21 946.274 1121.21 947.622 1121.21 947.622 1121.21 947.622 1110.63 958.183 1109.96 953.464 1109.73 948.521 1109.73 943.353 1109.73 864.711 1173.66 800.898 1252.21 800.898ZM1252.15 750C1265.43 750 1278.49 751.348 1291.55 754.043 1291.55 754.043 1291.55 754.043 1297.18 755.166 1297.18 755.166 1294.48 767.969 1293.36 773.36 1304.84 776.055 1316.1 780.098 1326.68 785.04 1329.38 780.323 1335.24 768.643 1335.24 768.643 1335.24 768.643 1335.24 768.643 1340.19 771.338 1352.12 777.403 1363.16 784.591 1373.51 792.901 1383.87 801.212 1393.33 810.646 1401.66 820.754 1401.66 820.754 1401.66 820.754 1405.26 825.246 1405.26 825.246 1395.13 833.557 1391.08 836.926 1398.28 846.135 1404.36 856.468 1409.76 867.025 1414.49 865.003 1426.43 859.612 1426.43 859.612 1426.43 859.612 1426.43 859.612 1428.9 864.778 1434.08 876.908 1438.36 889.71 1441.06 902.514 1443.99 915.541 1445.34 928.569 1445.57 941.819 1445.57 941.819 1445.57 941.819 1445.57 947.435 1445.57 947.435 1445.57 947.435 1428.23 947.435 1428.23 947.435 1428.23 947.435 1427.78 947.659 1427.55 947.659 1427.33 947.659 1427.1 947.659 1427.1 947.884 1427.1 948.108 1427.1 948.333 1427.1 948.333 1427.1 948.333 1415.39 955.745 1415.62 951.702 1415.84 947.659 1415.84 943.391 1415.84 943.391 1415.84 943.391 1415.62 936.43 1415.62 936.43 1428.23 936.43 1433.63 936.206 1433.18 925.873 1432.06 915.317 1429.8 904.984 1427.55 894.652 1424.4 884.544 1420.35 874.886 1415.39 877.132 1403.91 882.073 1403.91 882.073 1403.91 882.073 1403.91 882.073 1401.66 876.908 1395.8 863.43 1387.92 850.852 1378.69 839.621 1378.69 839.621 1378.69 839.621 1375.09 835.129 1375.09 835.129 1384.77 827.268 1389.05 823.898 1382.07 815.812 1374.64 808.4 1366.31 801.886 1357.98 795.147 1349.2 789.532 1339.96 784.366 1337.49 789.083 1331.86 800.314 1331.86 800.314 1331.86 800.314 1331.86 800.314 1326.68 797.618 1313.62 790.88 1299.66 786.163 1285.47 783.018 1285.47 783.018 1285.47 783.018 1279.85 781.895 1279.85 781.895 1282.32 769.542 1283.45 764.375 1273.09 762.578 1262.73 761.455 1252.15 761.455 1241.57 761.455 1230.98 762.578 1220.63 764.375 1221.75 769.542 1224.46 781.895 1224.46 781.895 1224.46 781.895 1224.46 781.895 1218.6 783.018 1204.42 786.163 1190.46 790.88 1177.17 797.843 1177.17 797.843 1177.17 797.843 1171.99 800.538 1171.99 800.538 1166.36 789.083 1163.89 784.366 1154.65 789.532 1145.65 795.147 1137.54 801.886 1129.21 808.4 1121.78 815.812 1115.03 823.898 1119.08 827.268 1128.99 835.354 1128.99 835.354 1128.99 835.354 1128.99 835.354 1125.38 839.846 1116.15 851.077 1108.5 863.655 1102.42 877.132 1102.42 877.132 1102.42 877.132 1100.16 882.073 1100.16 882.073 1088.46 877.132 1083.5 874.886 1079.45 884.544 1076.07 894.652 1073.82 904.984 1071.79 915.317 1070.67 925.873 1070.22 936.206 1075.62 936.43 1082.83 936.43 1082.83 936.43 1082.83 936.43 1082.83 936.43 1088.46 936.43 1088.46 936.43 1088.46 936.43 1088.46 943.391 1088.46 947.435 1088.46 951.253 1088.91 955.071L1076.97 947.435C1076.97 947.435 1076.97 947.435 1058.28 947.435 1058.28 947.435 1058.28 947.435 1058.28 941.819 1058.51 928.569 1060.09 915.541 1062.79 902.514 1065.49 889.71 1069.77 876.908 1075.17 864.778 1075.17 864.778 1075.17 864.778 1077.42 859.612 1077.42 859.612 1089.58 865.003 1094.54 867.249 1099.71 856.468 1105.79 846.36 1113 836.926 1108.72 833.557 1098.59 825.246 1098.59 825.246 1098.59 825.246 1098.59 825.246 1102.19 820.754 1110.52 810.646 1119.98 801.212 1130.34 792.901 1140.69 784.591 1151.73 777.403 1163.66 771.338 1163.66 771.338 1163.66 771.338 1168.61 768.643 1168.61 768.643 1174.69 780.323 1177.17 785.264 1187.98 780.098 1199.24 776.055 1210.72 773.36 1209.82 767.969 1207.12 755.166 1207.12 755.166 1207.12 755.166 1207.12 755.166 1212.75 754.043 1225.58 751.348 1238.87 750 1252.15 750Z" fill="#004299" fill-rule="evenodd"/></g></svg>